<?xml version="1.0" encoding="utf-8"?>
<!-- Generator: Adobe Illustrator 16.0.0, SVG Export Plug-In . SVG Version: 6.00 Build 0)  -->
<!DOCTYPE svg PUBLIC "-//W3C//DTD SVG 1.1//EN" "http://www.w3.org/Graphics/SVG/1.1/DTD/svg11.dtd">
<svg version="1.1" id="Layer_1" xmlns="http://www.w3.org/2000/svg" xmlns:xlink="http://www.w3.org/1999/xlink" x="0px" y="0px"
	 width="700px" height="700px" viewBox="0 0 700 700" enable-background="new 0 0 700 700" xml:space="preserve">
<g>
	<path fill="#FFFFFF" d="M314.207,106.99h94.834c4.912,0,8.889-3.978,8.889-8.889s-3.977-8.889-8.889-8.889h-94.834
		c-11.48,0-22.09,6.123-27.828,16.067c-5.742,9.943-5.742,22.193,0,32.135c5.738,9.943,16.348,16.071,27.828,16.071h42.676
		c2.537-0.066,4.994,0.897,6.813,2.67c1.818,1.774,2.844,4.205,2.844,6.743c0,2.539-1.025,4.97-2.844,6.743
		c-1.82,1.77-4.275,2.737-6.813,2.671h-28.077c-4.87,0-9.546,1.935-12.99,5.383c-3.443,3.444-5.383,8.12-5.383,12.989v16.911
		c0,4.912,3.981,8.893,8.894,8.893c4.907,0,8.889-3.981,8.889-8.893v-16.922c0-0.327,0.265-0.591,0.591-0.591h28.069
		c7.281,0.107,14.301-2.708,19.488-7.822c5.189-5.11,8.107-12.089,8.107-19.374s-2.918-14.265-8.107-19.375
		c-5.188-5.114-12.207-7.93-19.488-7.822H314.2c-7.93,0-14.357-6.429-14.357-14.354c0-7.93,6.428-14.354,14.357-14.354
		L314.207,106.99z"/>
	<path fill="#FFFFFF" d="M153.162,495.855c-0.111,38.441,9.277,76.314,27.337,110.244c1.546,2.889,4.56,4.688,7.834,4.688h272.642
		h0.148h0.166h50.383h-0.004c3.273,0.004,6.283-1.795,7.838-4.676c18.055-33.932,27.443-71.801,27.332-110.242
		c0-78.863-38.604-150.387-99.877-188.564c48.115-14.817,77.125-40.062,77.125-68.39h0.004c0-4.911-3.98-8.888-8.889-8.888H184.74
		c-4.911,0-8.889,3.977-8.889,8.888c0,28.321,29.044,53.586,77.181,68.39c-61.278,38.144-99.864,109.671-99.864,188.552
		L153.162,495.855z M280.011,312.659c0.046,0,0.083-0.054,0.124-0.07c0.716-0.285,1.39-0.666,2.01-1.125
		c0.137-0.107,0.261-0.219,0.393-0.327h-0.004c0.55-0.455,1.042-0.976,1.464-1.546c0.054-0.07,0.111-0.124,0.161-0.194v-0.004
		c0.442-0.649,0.794-1.352,1.042-2.096c0.058-0.173,0.111-0.343,0.161-0.521c0.239-0.79,0.367-1.613,0.38-2.436
		c-0.013-0.967-0.182-1.926-0.504-2.836c-0.042-0.124-0.07-0.248-0.12-0.368c-0.322-0.818-0.77-1.587-1.319-2.274l-0.302-0.368
		c-0.578-0.657-1.248-1.224-1.988-1.691c-0.12-0.07-0.244-0.124-0.359-0.194c-0.807-0.463-1.679-0.798-2.593-0.988
		c-44.196-9.691-75.749-28.171-83.249-47.83h309.305c-7.455,19.625-38.879,38.074-82.883,47.743l-0.004-0.004
		c-21.324,3.117-42.873,4.473-64.426,4.056c-4.906,0-8.888,3.981-8.888,8.889c0,4.912,3.981,8.893,8.888,8.893
		c21.504,0.373,43.002-0.922,64.303-3.878c65.311,31.723,107.449,102.971,107.449,182.361c0.098,33.719-7.703,66.988-22.777,97.152
		H476.24c10.398-21.076,15.793-44.27,15.766-67.77c0-81.752-63.715-148.26-142.016-148.26s-142.109,66.506-142.109,148.26
		c-0.009,13.553,1.765,27.047,5.279,40.137c1.273,4.746,6.156,7.563,10.902,6.285c4.746-1.273,7.562-6.156,6.284-10.902
		c-3.109-11.58-4.68-23.525-4.668-35.52c0-71.941,55.772-130.48,124.309-130.48s124.233,58.535,124.233,130.48
		c0.041,23.797-6.23,47.186-18.178,67.77H413.1v-38.76c0-4.906-3.982-8.889-8.895-8.889h-46.713v-9.959
		c14.188-2.865,26.137-12.387,32.094-25.584c5.957-13.193,5.207-28.447-2.029-40.992v-0.041c-0.373-0.67-0.777-1.322-1.188-1.955
		c-6.916-11.109-16.145-23.596-16.404-23.947c-5.02-6.854-9.402-14.156-13.098-21.805c-1.363-3.324-4.598-5.498-8.19-5.514h-0.042
		c-3.593,0-6.83,2.162-8.211,5.477c-3.654,7.588-7.991,14.826-12.955,21.627c-0.409,0.551-9.625,13.041-16.542,24.137
		c-0.401,0.592-0.777,1.188-1.133,1.828l-0.12,0.201l0.005-0.004c-4.688,8.15-6.706,17.561-5.776,26.912
		c0.931,9.355,4.763,18.184,10.959,25.248c1.543,1.826,3.754,2.959,6.136,3.137c2.386,0.178,4.742-0.611,6.536-2.191
		c1.795-1.578,2.878-3.814,3.006-6.201c0.128-2.389-0.711-4.725-2.327-6.486c-3.713-4.234-6.02-9.514-6.607-15.109
		c-0.587-5.598,0.571-11.242,3.316-16.154l0.028-0.055l1.014-1.648l0.124-0.203c6.52-10.48,15.594-22.734,15.838-23.074
		c2.65-3.824,4.87-7.215,6.723-10.174c1.878,3.01,4.151,6.479,6.872,10.398c0.096,0.131,9.145,12.381,15.682,22.854h-0.006
		c0.039,0.066,0.08,0.137,0.121,0.199l0.984,1.596c3.977,7.027,4.625,15.463,1.773,23.016c-2.854,7.557-8.914,13.457-16.541,16.104
		v-25.07H339.75v53.416l-43.973-0.006c-4.911,0-8.893,3.982-8.893,8.895v15.145v-0.004c0,4.912,3.981,8.893,8.893,8.893
		c4.907,0,8.888-3.98,8.888-8.893v-6.227h90.649v29.867H193.713c-15.073-30.164-22.875-63.436-22.777-97.154
		c0-80.064,42.796-151.932,109.067-183.197L280.011,312.659z"/>
</g>
</svg>
