<?xml version="1.0" encoding="utf-8"?>
<!-- Generator: Adobe Illustrator 16.0.0, SVG Export Plug-In . SVG Version: 6.00 Build 0)  -->
<!DOCTYPE svg PUBLIC "-//W3C//DTD SVG 1.1//EN" "http://www.w3.org/Graphics/SVG/1.1/DTD/svg11.dtd">
<svg version="1.1" id="Layer_1" xmlns="http://www.w3.org/2000/svg" xmlns:xlink="http://www.w3.org/1999/xlink" x="0px" y="0px"
	 width="700px" height="700px" viewBox="0 0 700 700" enable-background="new 0 0 700 700" xml:space="preserve">
<g>
	<path fill="#FFFFFF" d="M549.751,255.244c-2.891-2.895-6.273-5.262-9.984-6.984c8.73-9.539,12.793-22.457,11.094-35.276
		c-1.699-12.82-8.988-24.23-19.902-31.164c-10.914-6.938-24.34-8.688-36.668-4.777c-18.758-21.32-42.238-37.961-68.57-48.586
		c15.371-1.047,29.216-2.25,40.617-3.359h-0.004c3.598,7.504,10.543,12.858,18.719,14.43c8.172,1.57,16.605-0.828,22.73-6.465
		s9.211-13.844,8.324-22.121c-0.891-8.273-5.652-15.637-12.836-19.844s-15.934-4.758-23.586-1.484
		c-7.656,3.273-13.301,9.98-15.223,18.078c-16.695,1.617-42.396,3.785-70.738,5.031c-0.27-6.773-3.148-13.185-8.039-17.888
		c-4.887-4.703-11.402-7.332-18.185-7.34h-35c-6.781,0.008-13.301,2.641-18.188,7.344s-7.766,11.113-8.035,17.892
		c-28.125-1.238-53.633-3.379-70.738-5.031c-1.922-8.102-7.57-14.81-15.223-18.082c-7.652-3.273-16.402-2.723-23.586,1.484
		s-11.945,11.57-12.836,19.848c-0.887,8.273,2.199,16.48,8.324,22.117s14.559,8.035,22.733,6.465
		c8.173-1.57,15.117-6.926,18.716-14.434c10.719,1.039,24.737,2.27,40.645,3.355c-26.34,10.629-49.832,27.27-68.598,48.59
		c-12.328-3.91-25.758-2.168-36.676,4.77c-10.918,6.934-18.207,18.348-19.906,31.168c-1.699,12.824,2.367,25.742,11.102,35.28
		c-3.715,1.724-7.094,4.086-9.984,6.985c-8.078,8.077-11.707,19.593-9.719,30.843s9.344,20.82,19.703,25.641
		c-8.359,9.152-12.449,21.418-11.246,33.758c1.203,12.336,7.582,23.586,17.555,30.949c9.974,7.363,22.599,10.152,34.746,7.672
		c-0.281,10.978,4.609,21.449,13.207,28.277c8.594,6.832,19.902,9.226,30.531,6.473c-0.012,0.379-0.027,0.754-0.027,1.137
		c-0.008,11.378,4.422,22.312,12.348,30.479c7.93,8.164,18.728,12.918,30.103,13.25c11.379,0.332,22.434-3.785,30.819-11.477
		c4.43,9.48,12.855,16.496,22.98,19.137v19.246c-19.816,2.852-36.988,15.211-45.988,33.098c-8.996,17.888-8.684,39.043,0.84,56.656
		c9.52,17.613,27.051,29.457,46.941,31.727c19.895,2.266,39.641-5.332,52.883-20.352c2.41-2.734,2.875-6.676,1.164-9.895
		c-1.707-3.219-5.234-5.039-8.852-4.574c-1.074,0.137-2.156,0.207-3.238,0.203c-9.379,0-18.043-5.004-22.734-13.125
		c-4.688-8.121-4.688-18.129,0-26.25c4.691-8.121,13.355-13.125,22.734-13.125c1.082-0.004,2.164,0.066,3.238,0.203
		c3.617,0.465,7.145-1.355,8.852-4.574c1.711-3.219,1.246-7.16-1.164-9.895c-9.621-10.891-22.797-18.008-37.176-20.086v-19.258
		c10.125-2.641,18.551-9.656,22.977-19.141c8.391,7.691,19.445,11.809,30.82,11.479c11.375-0.332,22.176-5.086,30.102-13.25
		s12.359-19.103,12.353-30.479c0-0.379-0.02-0.758-0.027-1.137c10.629,2.77,21.944,0.379,30.547-6.453
		c8.598-6.836,13.488-17.316,13.19-28.297c12.152,2.5,24.789-0.281,34.773-7.645c9.98-7.363,16.367-18.621,17.565-30.965
		c1.195-12.348-2.905-24.621-11.284-33.77c10.358-4.816,17.715-14.391,19.703-25.641c1.987-11.25-1.637-22.762-9.72-30.844
		L549.751,255.244z M533.751,218.744c0,6.961-2.766,13.642-7.688,18.563s-11.603,7.688-18.563,7.688s-13.641-2.766-18.563-7.688
		c-4.921-4.922-7.688-11.603-7.688-18.563s2.766-13.641,7.688-18.562c4.923-4.921,11.603-7.688,18.563-7.688
		c6.961,0.008,13.633,2.777,18.551,7.699C530.974,205.112,533.743,211.784,533.751,218.744L533.751,218.744z M490.001,104.994
		c3.539,0,6.73,2.133,8.081,5.402c1.356,3.27,0.609,7.031-1.894,9.535c-2.504,2.504-6.266,3.25-9.536,1.895
		c-3.269-1.352-5.401-4.543-5.401-8.082C481.255,108.912,485.169,104.998,490.001,104.994z M323.751,113.744
		c0.004-4.832,3.918-8.746,8.75-8.75h35c4.831,0.004,8.746,3.918,8.75,8.75v17.5c-0.004,4.832-3.919,8.746-8.75,8.75h-35
		c-4.832-0.004-8.746-3.918-8.75-8.75V113.744z M210.001,122.494c-3.539,0-6.73-2.133-8.082-5.402
		c-1.355-3.27-0.609-7.031,1.895-9.535s6.266-3.25,9.535-1.895c3.27,1.352,5.402,4.543,5.402,8.082
		C218.747,118.576,214.833,122.49,210.001,122.494z M306.751,136.338c1.188,5.957,4.397,11.32,9.094,15.181
		c4.695,3.855,10.582,5.969,16.655,5.977h35c6.074-0.008,11.961-2.121,16.656-5.977c4.695-3.859,7.906-9.223,9.094-15.181
		c33.56,8.055,63.344,25.316,85.449,49.517c-7.953,6.945-13.117,16.539-14.547,27s0.977,21.09,6.777,29.914
		c5.797,8.824,14.594,15.254,24.762,18.094c-3.699,5.695-5.672,12.34-5.672,19.133s1.973,13.438,5.672,19.133
		c-10.652,2.988-19.777,9.902-25.539,19.344c-5.762,9.445-7.73,20.723-5.516,31.562c-8.578-0.234-16.94,2.699-23.492,8.242
		c-6.555,5.539-10.836,13.301-12.03,21.797c-11.613-5.211-24.923-5.098-36.445,0.305c-11.523,5.406-20.121,15.566-23.539,27.828
		c-5.684-3.727-12.332-5.711-19.129-5.711s-13.445,1.984-19.129,5.711c-3.418-12.262-12.017-22.422-23.539-27.828
		c-11.523-5.402-24.832-5.516-36.445-0.305c-1.195-8.496-5.477-16.258-12.03-21.797c-6.551-5.543-14.914-8.477-23.492-8.242
		c2.215-10.84,0.246-22.117-5.516-31.559c-5.762-9.445-14.883-16.359-25.535-19.348c3.699-5.695,5.672-12.34,5.672-19.133
		s-1.973-13.438-5.672-19.133c10.168-2.84,18.965-9.27,24.766-18.094c5.797-8.824,8.203-19.453,6.773-29.914
		c-1.426-10.461-6.594-20.056-14.547-27C243.401,161.669,273.202,144.396,306.751,136.338L306.751,136.338z M192.501,192.494
		c6.961,0,13.641,2.766,18.562,7.688s7.688,11.603,7.688,18.563s-2.766,13.641-7.688,18.562s-11.602,7.688-18.562,7.688
		s-13.642-2.766-18.563-7.688s-7.688-11.602-7.688-18.562c0.008-6.961,2.777-13.633,7.699-18.552
		C178.868,195.271,185.54,192.501,192.501,192.494L192.501,192.494z M162.626,267.619c3.285-3.281,7.734-5.125,12.375-5.125
		s9.094,1.844,12.375,5.125s5.125,7.734,5.125,12.375s-1.844,9.094-5.125,12.375s-7.734,5.125-12.375,5.125
		s-9.09-1.844-12.375-5.125c-3.277-3.285-5.117-7.734-5.117-12.375S159.349,270.904,162.626,267.619z M166.251,341.244
		c0-6.961,2.766-13.641,7.688-18.562s11.602-7.688,18.562-7.688s13.642,2.766,18.563,7.688s7.688,11.602,7.688,18.562
		s-2.766,13.642-7.688,18.563s-11.603,7.688-18.563,7.688c-6.961-0.008-13.633-2.777-18.551-7.699
		C169.028,354.877,166.258,348.205,166.251,341.244L166.251,341.244z M223.876,397.369c-3.277-3.285-5.117-7.734-5.117-12.375
		s1.84-9.09,5.117-12.375c3.285-3.281,7.734-5.125,12.375-5.125s9.094,1.844,12.375,5.125s5.125,7.734,5.125,12.375
		s-1.844,9.094-5.125,12.375s-7.734,5.125-12.375,5.125S227.161,400.65,223.876,397.369z M288.751,446.244
		c-6.961,0-13.642-2.766-18.563-7.688s-7.688-11.602-7.688-18.562s2.766-13.642,7.688-18.563s11.603-7.688,18.563-7.688
		s13.641,2.766,18.562,7.688S315,413.035,315,419.995c-0.008,6.96-2.777,13.632-7.699,18.55
		C302.383,443.468,295.711,446.236,288.751,446.244L288.751,446.244z M341.251,551.244c0.008,8.508,2.496,16.832,7.155,23.953
		c4.66,7.117,11.293,12.727,19.087,16.141c-13.527,5.906-29.117,4.594-41.47-3.488c-12.348-8.082-19.788-21.848-19.788-36.604
		s7.44-28.523,19.788-36.605c12.353-8.082,27.941-9.395,41.47-3.488c-7.794,3.414-14.427,9.023-19.087,16.142
		C343.746,534.414,341.258,542.737,341.251,551.244L341.251,551.244z M350.001,454.994c-4.641,0-9.095-1.844-12.375-5.125
		c-3.281-3.281-5.125-7.734-5.125-12.375s1.844-9.094,5.125-12.375c3.28-3.281,7.734-5.125,12.375-5.125
		c4.64,0,9.094,1.844,12.375,5.125c3.28,3.281,5.125,7.734,5.125,12.375c-0.004,4.641-1.853,9.086-5.133,12.367
		C359.087,453.143,354.641,454.99,350.001,454.994L350.001,454.994z M411.251,446.244c-6.961,0-13.642-2.766-18.563-7.688
		s-7.688-11.602-7.688-18.562s2.766-13.642,7.688-18.563s11.602-7.688,18.563-7.688c6.96,0,13.641,2.766,18.562,7.688
		s7.688,11.603,7.688,18.563c-0.008,6.96-2.777,13.632-7.699,18.55C424.883,443.468,418.211,446.236,411.251,446.244
		L411.251,446.244z M476.126,397.369c-3.281,3.277-7.731,5.117-12.367,5.117c-4.641-0.004-9.086-1.848-12.367-5.125
		c-3.277-3.281-5.121-7.73-5.121-12.367c0-4.636,1.844-9.086,5.121-12.366c3.281-3.281,7.727-5.125,12.367-5.125
		c4.637,0,9.086,1.84,12.367,5.117c3.276,3.285,5.117,7.734,5.117,12.375S479.404,394.085,476.126,397.369L476.126,397.369z
		 M507.501,367.494c-6.961,0-13.642-2.766-18.563-7.688s-7.688-11.602-7.688-18.562s2.766-13.641,7.688-18.562
		s11.602-7.688,18.563-7.688c6.96,0,13.641,2.766,18.562,7.688s7.688,11.602,7.688,18.562c-0.008,6.961-2.777,13.633-7.699,18.551
		C521.133,364.718,514.461,367.487,507.501,367.494L507.501,367.494z M537.376,292.369c-3.281,3.277-7.731,5.117-12.367,5.117
		c-4.641-0.004-9.086-1.848-12.367-5.125c-3.277-3.281-5.121-7.73-5.121-12.367c0-4.636,1.844-9.086,5.121-12.367
		c3.281-3.281,7.727-5.125,12.367-5.125c4.637,0,9.086,1.84,12.367,5.117c3.276,3.285,5.117,7.734,5.117,12.375
		S540.654,289.084,537.376,292.369L537.376,292.369z"/>
</g>
</svg>
