<?xml version="1.0" encoding="utf-8"?>
<!-- Generator: Adobe Illustrator 16.0.0, SVG Export Plug-In . SVG Version: 6.00 Build 0)  -->
<!DOCTYPE svg PUBLIC "-//W3C//DTD SVG 1.1//EN" "http://www.w3.org/Graphics/SVG/1.1/DTD/svg11.dtd">
<svg version="1.1" id="Layer_1" xmlns="http://www.w3.org/2000/svg" xmlns:xlink="http://www.w3.org/1999/xlink" x="0px" y="0px"
	 width="700px" height="700px" viewBox="0 0 700 700" enable-background="new 0 0 700 700" xml:space="preserve">
<g>
	<path fill="#FFFFFF" d="M222.698,474.688c7.328-3.828,15.531-4.922,23.734-3.172l48.781,10.5c36.312,7.765,73.062,7.765,109.38,0
		l48.779-10.5c10.5-2.298,21.328,0.328,29.75,7.109s13.125,16.844,13.125,27.562v0.875c0,19.578-15.857,35.438-35.438,35.438
		h-44.078c-4.813,0-8.75,3.938-8.75,8.75s3.938,8.75,8.75,8.75h44.188c29.203,0,52.939-23.734,52.939-52.938v-0.875
		c0-16.078-7.219-31.062-19.689-41.234c-12.469-10.062-28.654-14-44.404-10.608l-9.297,1.969
		c11.594-11.595,19.25-26.797,21.219-43.422c0.547-4.813-2.844-9.188-7.656-9.734s-9.188,2.844-9.734,7.656
		c-2.188,18.155-13.234,34.233-29.422,42.983l-24.172,13.016c-27.125,4.595-54.689,4.595-81.813,0l-27.233-14.655
		c-1.313-0.656-2.516-1.422-3.719-2.188c1.969-1.094,3.828-2.406,5.688-3.719c1.969-1.422,3.938-3.063,5.688-4.813
		c7.219-7.219,11.047-15.642,11.047-24.391v-80.392c10.172,16.625,28.547,27.672,49.438,27.672c4.812,0,8.75-3.938,8.75-8.75
		s-3.938-8.75-8.75-8.75c-22.312,0-40.469-18.156-40.469-40.469v-52.5c0-0.766-0.109-1.422-0.219-2.078l6.016-2.188
		c2.297,1.969,4.703,3.719,7.219,5.359c0.109,0,0.219,0.109,0.219,0.109c0.438,0.328,0.984,0.547,1.422,0.875
		c2.953,1.641,6.125,3.063,9.297,4.156c0.656,0.219,1.422,0.438,2.188,0.656h0.219c0.656,0.219,1.313,0.328,2.078,0.547
		c0.109,0,0.219,0.109,0.328,0.109c0.656,0.109,1.203,0.219,1.859,0.438c0.219,0,0.438,0.109,0.656,0.109
		c0.547,0.109,1.094,0.219,1.75,0.328c0.328,0,0.547,0.109,0.875,0.109c0.547,0.109,0.984,0.109,1.531,0.219
		c0.438,0,0.875,0.109,1.313,0.109s0.766,0.109,1.203,0.109c0.875,0,1.641,0.109,2.516,0.109c0.875,0,1.75,0,2.515-0.109h0.656
		c0.656,0,1.313-0.109,1.969-0.109c0.219,0,0.328,0,0.547-0.109c0.766-0.109,1.422-0.219,2.188-0.328h0.219
		c9.406-1.422,18.156-5.359,25.484-11.484l6.891,2.734v0.656v52.5c0,7.656-2.188,15.094-6.234,21.547
		c-2.625,4.047-1.313,9.516,2.734,12.031c1.422,0.875,3.063,1.313,4.703,1.313c2.953,0,5.688-1.422,7.438-4.047
		c5.797-9.297,8.969-19.906,8.969-30.953v-46.156l3.828,1.531c10.5,4.156,17.172,14,16.953,24.938c0,0.438,0,0.875,0.109,1.313
		l14.219,101.61c0.656,4.813,5.141,8.094,9.844,7.438c4.813-0.656,8.094-5.141,7.438-9.845l-14-101.279
		c0-17.938-10.938-33.906-28-40.797l-22.859-9.078c4.484-7.766,7.109-16.734,7.109-26.25v-52.5c0-28.984-23.516-52.5-52.5-52.5
		c-7.766,0-15.203,1.75-21.875,4.813v-0.438c0-12.031,9.844-21.875,21.875-21.875c7.765,0,15.093,4.156,18.921,10.938
		c2.406,4.156,7.766,5.578,11.922,3.172s5.578-7.766,3.172-11.922c-6.891-12.141-20.016-19.688-34.015-19.688
		c-21.766,0-39.375,17.609-39.375,39.375c0,3.938,0.547,7.875,1.75,11.594c-9.188,9.406-14.875,22.312-14.875,36.531v52.5
		c0,9.078,2.297,17.5,6.344,24.938l-6.344,2.297v-0.984c0-19.25-15.75-35-35-35s-35,15.75-35,35v17.5
		c0,6.344,1.75,12.359,4.703,17.5c-4.375,0.438-7.875,4.156-7.875,8.75v27.891c0,4.813,3.938,8.75,8.75,8.75s8.75-3.938,8.75-8.75
		v-19.141h41.125v128.19c0,5.797-4.813,11.375-9.844,15.313c-4.594,3.172-9.625,5.141-12.688,5.141
		c-10.392-0.984-18.595-9.844-18.595-20.454v-52.719c0-4.813-3.938-8.75-8.75-8.75s-8.75,3.938-8.75,8.75v52.719
		c0,18.813,13.672,34.454,31.609,37.517c0.547,0.547,1.094,1.094,1.641,1.531l-7.547-1.641c-12.031-2.625-24.609-0.875-35.438,4.813
		c-4.266,2.188-5.906,7.547-3.719,11.812c2.297,4.266,7.547,5.906,11.813,3.719L222.698,474.688z M315.01,186.597
		c0-11.594,9.516-21.109,21.108-21.109h27.782c11.594,0,21.109,9.516,21.109,21.109v23.406c0,9.516-3.828,18.266-10.063,24.5
		l-1.313,1.313c-0.109,0.109-0.219,0.109-0.219,0.219c-0.328,0.328-0.766,0.656-1.094,0.984c-6.016,5.031-13.781,7.984-22.204,7.984
		h-1.859h-0.109c-3.609-0.219-7.219-0.984-10.609-2.297l-1.64-0.656c-0.109,0-0.109-0.109-0.219-0.109l-1.313-0.656
		c-0.109-0.109-0.219-0.109-0.438-0.219c-0.328-0.219-0.766-0.328-1.095-0.547c-0.219-0.109-0.438-0.219-0.547-0.328
		c-0.219-0.109-0.547-0.328-0.766-0.438c-0.219-0.219-0.547-0.328-0.766-0.547c-0.219-0.109-0.328-0.219-0.547-0.328l-0.984-0.656
		c-0.109,0-0.109-0.109-0.219-0.219c-8.53-6.453-14-16.625-14-28L315.01,186.597z M384.901,154.222
		c-6.016-3.938-13.234-6.234-20.891-6.234h-27.781c-7.766,0-14.875,2.297-20.892,6.234c1.641-17.719,16.625-31.719,34.892-31.719
		C368.166,122.503,383.151,136.503,384.901,154.222z M245.011,236.253c0-9.625,7.875-17.5,17.5-17.5s17.5,7.875,17.5,17.5v13.562
		c0,3.391-0.328,7.766-1.859,11.703c-2.844,5.797-8.75,9.734-15.642,9.734c-9.625,0-17.5-7.875-17.5-17.5L245.011,236.253z"/>
	<path fill="#FFFFFF" d="M355.258,424.157c-4.266,2.297-5.797,7.547-3.609,11.813c1.531,2.953,4.594,4.594,7.766,4.594
		c1.422,0,2.844-0.328,4.156-1.094c29.75-15.97,44.953-50.095,36.859-82.907c-1.203-4.703-5.906-7.546-10.609-6.453
		c-4.703,1.203-7.547,5.906-6.453,10.609C389.492,385.875,377.899,412.016,355.258,424.157L355.258,424.157z"/>
	<path fill="#FFFFFF" d="M233.198,348.907c4.813,0,8.75-3.938,8.75-8.75v-9.297c0-4.813-3.938-8.75-8.75-8.75s-8.75,3.938-8.75,8.75
		v9.297C224.448,344.97,228.385,348.907,233.198,348.907z"/>
	<path fill="#FFFFFF" d="M581.668,612.497h-21.656v-26.25c0-4.813-3.938-8.75-8.75-8.75h-38.391l-4.266-8.531
		c-2.188-4.375-7.438-6.125-11.703-3.938c-4.375,2.188-6.125,7.438-3.938,11.703l0.328,0.766h-286.67l11.048-21.984
		c6.563,2.953,13.78,4.484,21.327,4.484h105.98c0.547,0,0.984,0,1.531-0.109c38.608-1.859,68.141-23.405,68.141-50.53
		c0-4.813-3.938-8.75-8.75-8.75s-8.75,3.938-8.75,8.75c0,17.938-25.703,33.141-56,33.141H238.99
		c-19.577,0-35.438-15.859-35.438-35.438v-0.875c0-5.578,1.203-10.827,3.719-15.75c2.188-4.375,0.438-9.625-3.938-11.702
		c-4.375-2.078-9.625-0.438-11.703,3.938c-3.609,7.328-5.469,15.312-5.469,23.516v0.875c0,15.312,6.563,29.203,17.063,38.828
		c-0.328,0.438-0.656,0.984-0.875,1.422l-15.203,30.188h-38.392c-4.813,0-8.75,3.938-8.75,8.75s3.938,8.75,8.75,8.75h393.75v17.5
		H118.345c-4.813,0-8.75,3.938-8.75,8.75s3.938,8.75,8.75,8.75h463.309c4.813,0,8.75-3.938,8.75-8.75s-3.938-8.75-8.75-8.75
		L581.668,612.497z"/>
	<path fill="#FFFFFF" d="M354.059,179.047c0,5.395-8.094,5.395-8.094,0S354.059,173.652,354.059,179.047"/>
</g>
</svg>
