<?xml version="1.0" encoding="utf-8"?>
<!-- Generator: Adobe Illustrator 16.0.0, SVG Export Plug-In . SVG Version: 6.00 Build 0)  -->
<!DOCTYPE svg PUBLIC "-//W3C//DTD SVG 1.1//EN" "http://www.w3.org/Graphics/SVG/1.1/DTD/svg11.dtd">
<svg version="1.1" id="Layer_1" xmlns="http://www.w3.org/2000/svg" xmlns:xlink="http://www.w3.org/1999/xlink" x="0px" y="0px"
	 width="700px" height="700px" viewBox="0 0 700 700" enable-background="new 0 0 700 700" xml:space="preserve">
<path fill="#FFFFFF" d="M361.662,286.267v-39.668c30.332-5.832,53.668-31.5,53.668-64.168c0-31.5-46.668-95.668-56-107.33
	c-4.668-5.832-14-5.832-18.668,0c-9.332,12.832-56,75.832-56,107.33s23.332,58.332,53.668,64.168v39.668
	C262.498,288.599,189,309.599,189,346.935v221.67c0,39.668,81.668,60.668,161,60.668s161-21,161-60.668v-221.67
	c-0.004-37.332-73.504-58.332-149.34-60.668H361.662z M307.994,182.437c0-16.332,22.168-53.668,42-80.5
	c18.668,26.832,42,64.168,42,80.5c0,23.332-18.668,42-42,42S307.994,205.769,307.994,182.437z M338.326,309.607v37.332
	c0,7,4.668,11.668,11.668,11.668s11.668-4.668,11.668-11.668v-37.332c81.668,2.332,126,25.668,126,37.332
	c0,12.833-49,37.333-137.67,37.333s-137.67-24.5-137.67-37.333c0-11.668,44.336-35,125.999-37.332H338.326z M349.994,607.107
	c-88.668,0-137.67-24.5-137.67-37.332v-189c29.168,18.668,84,28,137.67,28s108.5-9.332,137.67-28v187.83
	c0,12.836-49,38.504-137.67,38.504V607.107z"/>
</svg>
