<?xml version="1.0" encoding="utf-8"?>
<!-- Generator: Adobe Illustrator 16.0.0, SVG Export Plug-In . SVG Version: 6.00 Build 0)  -->
<!DOCTYPE svg PUBLIC "-//W3C//DTD SVG 1.1//EN" "http://www.w3.org/Graphics/SVG/1.1/DTD/svg11.dtd">
<svg version="1.1" id="Layer_1" xmlns="http://www.w3.org/2000/svg" xmlns:xlink="http://www.w3.org/1999/xlink" x="0px" y="0px"
	 width="700px" height="700px" viewBox="0 0 700 700" enable-background="new 0 0 700 700" xml:space="preserve">
<path fill="#FFFFFF" d="M601.996,302.939v0.055l-0.055,41.242l-21.105,183.4v47.113c0,15.022-12.227,27.242-27.242,27.242
	L474.973,602H125.244c-15.016,0.004-27.242-12.224-27.242-27.238v-134.73c0-15.074,12.228-27.242,27.242-27.242h159.39l0.004-75.766
	c0-15.133,2.367-30.043,6.895-44.262c4.523-14.324,11.259-27.836,19.978-40.168c15.133-21.488,23.262-47.009,23.262-73.289v-26.813
	l-0.004-27.25c0-15.074,12.168-27.242,27.247-27.242h45.229c15.074,0,27.301,12.168,27.301,27.242v54.055
	c0,13.138,2.043,26.063,5.926,38.445c3.93,12.332,9.742,24.07,17.338,34.789l0.055,0.055c5.113,7.324,9.586,15.023,13.24,23.103
	h103.65c14.914,0,27.031,11.956,27.242,26.812v0.27l0.004,0.168L601.996,302.939z M373.906,500.13v74.633
	c0,2.742-0.375,5.387-1.188,7.863h40.227c-0.805-2.477-1.188-5.113-1.188-7.863V527.65c-0.055-0.164-0.055-0.375-0.055-0.539
	l-21.211-182.801v-41.354c0-15.074,12.168-27.242,27.242-27.242h31.711c-2.262-4.039-4.738-8.023-7.43-11.898
	c-8.773-12.387-15.508-25.957-20.031-40.168c-4.469-14.27-6.836-29.188-6.836-44.312v-17.125l-61.004-0.008v17.125
	c0,30.262-9.367,59.77-26.812,84.43c-7.594,10.771-13.461,22.508-17.336,34.896c-3.93,12.332-5.977,25.258-5.977,38.395v75.762
	h42.646c15.022,0,27.241,12.169,27.241,27.243V500.13z M582.615,303v-0.109c-0.055-4.363-3.5-7.805-7.863-7.805h-10.875v32.522
	c0,5.332-4.363,9.695-9.695,9.695c-5.387,0-9.695-4.363-9.695-9.695v-32.522h-17.822l0.004,32.522c0,5.332-4.363,9.695-9.695,9.695
	s-9.695-4.363-9.695-9.695v-32.522h-17.824l0.004,32.522c0,5.332-4.305,9.695-9.695,9.695c-5.332,0-9.695-4.363-9.695-9.695v-32.522
	l-5.32-0.004h-12.439v32.526c0,5.332-4.363,9.695-9.695,9.695c-5.387,0-9.695-4.363-9.695-9.695v-32.522h-15.188
	c-4.363,0-7.863,3.5-7.863,7.863v40.227l20.195,174.24h132.41l20.086-174.3L582.615,303z M561.461,574.77v-37.961l-130.311-0.004
	v37.961c0,4.305,3.5,7.863,7.863,7.863h114.58C557.903,582.625,561.461,579.074,561.461,574.77L561.461,574.77z M415.16,142.81
	v-17.559c0-2.207-0.863-4.094-2.313-5.543c-1.457-1.457-3.395-2.313-5.602-2.313h-45.23c-4.363,0-7.863,3.5-7.863,7.863v17.551
	H415.16z M354.528,574.77v-64.944h-237.14v64.938c0.055,4.305,3.555,7.863,7.863,7.863h221.41c4.308,0,7.863-3.551,7.863-7.855
	L354.528,574.77z M354.528,490.442v-50.398c0-4.363-3.555-7.863-7.864-7.863h-221.42c-4.305,0-7.805,3.5-7.863,7.863v50.398H354.528
	z"/>
</svg>
