<?xml version="1.0" encoding="utf-8"?>
<!-- Generator: Adobe Illustrator 16.0.0, SVG Export Plug-In . SVG Version: 6.00 Build 0)  -->
<!DOCTYPE svg PUBLIC "-//W3C//DTD SVG 1.1//EN" "http://www.w3.org/Graphics/SVG/1.1/DTD/svg11.dtd">
<svg version="1.1" id="Layer_1" xmlns="http://www.w3.org/2000/svg" xmlns:xlink="http://www.w3.org/1999/xlink" x="0px" y="0px"
	 width="700px" height="700px" viewBox="0 0 700 700" enable-background="new 0 0 700 700" xml:space="preserve">
<g>
	<path fill="#FFFFFF" d="M588.001,474.73c-4.641,0-8.398,3.758-8.398,8.398c-0.02,8.594-3.438,16.827-9.516,22.905
		c-6.074,6.074-14.313,9.496-22.906,9.512h-394.36c-8.594-0.016-16.832-3.438-22.905-9.512c-6.078-6.078-9.496-14.312-9.516-22.905
		c0-4.641-3.758-8.398-8.398-8.398s-8.398,3.758-8.398,8.398c0.016,13.047,5.207,25.559,14.434,34.784
		c9.227,9.227,21.734,14.418,34.785,14.435h21.117v26.77v-0.004c0,4.641,3.758,8.402,8.398,8.402s8.398-3.762,8.398-8.402v-26.77
		l318.529,0.004v26.77v-0.004c0,4.641,3.758,8.402,8.398,8.402s8.398-3.762,8.398-8.402v-26.77h21.117v0.004
		c13.051-0.016,25.559-5.207,34.785-14.435c9.227-9.227,14.418-21.737,14.434-34.784c0-4.641-3.758-8.398-8.398-8.398H588.001z"/>
	<path fill="#FFFFFF" d="M157.431,494.76c2.336,4.008,7.477,5.363,11.484,3.027l122.279-71.254
		c4.023,3.762,9.156,6.121,14.629,6.727c5.477,0.605,11-0.574,15.746-3.367l209.62-122.12c5.906-3.449,10.207-9.098,11.949-15.715
		c1.746-6.613,0.797-13.648-2.637-19.562l-0.828-1.43h-0.004c-3.453-5.902-9.105-10.195-15.72-11.938
		c-6.613-1.743-13.645-0.793-19.559,2.641l-209.609,122.16c-4.738,2.785-8.461,7.012-10.625,12.065
		c-2.164,5.051-2.656,10.66-1.402,16.013l-122.3,71.272c-4.004,2.332-5.36,7.473-3.027,11.48H157.431z M303.231,398.439
		l209.62-122.14c4.293-2.508,9.805-1.063,12.315,3.227l0.828,1.43h0.004c2.504,4.297,1.051,9.813-3.242,12.32l-209.64,122.12
		c-2.066,1.203-4.523,1.539-6.832,0.93c-2.313-0.609-4.285-2.109-5.488-4.172l-0.813-1.379
		C297.476,406.471,298.933,400.951,303.231,398.439L303.231,398.439z"/>
	<path fill="#FFFFFF" d="M363.171,149.285h108.55c4.641,0,8.402-3.762,8.402-8.398c0-4.641-3.762-8.402-8.402-8.402h-108.55
		c-12.293,0.313-23.523,7.051-29.582,17.75c-6.059,10.703-6.059,23.797,0,34.5s17.289,17.438,29.582,17.75h48.836
		c3.379-0.07,6.641,1.219,9.055,3.582s3.773,5.598,3.773,8.977s-1.359,6.613-3.773,8.977c-2.414,2.359-5.676,3.652-9.055,3.582
		h-32.125c-5.105,0.008-10,2.039-13.609,5.652c-3.605,3.613-5.633,8.512-5.633,13.617v42.84c0,4.637,3.762,8.398,8.398,8.398
		c4.641,0,8.402-3.762,8.402-8.398v-42.84c0.004-1.352,1.098-2.441,2.445-2.449h32.129c7.855,0.109,15.426-2.934,21.023-8.453
		c5.594-5.516,8.742-13.047,8.742-20.902c0-7.859-3.148-15.387-8.742-20.906c-5.598-5.516-13.168-8.563-21.023-8.453h-48.844
		c-6.352-0.223-12.125-3.738-15.238-9.277c-3.113-5.543-3.113-12.305,0-17.844s8.887-9.055,15.238-9.277V149.285z"/>
</g>
</svg>
