<?xml version="1.0" encoding="utf-8"?>
<!-- Generator: Adobe Illustrator 16.0.0, SVG Export Plug-In . SVG Version: 6.00 Build 0)  -->
<!DOCTYPE svg PUBLIC "-//W3C//DTD SVG 1.1//EN" "http://www.w3.org/Graphics/SVG/1.1/DTD/svg11.dtd">
<svg version="1.1" id="Layer_1" xmlns="http://www.w3.org/2000/svg" xmlns:xlink="http://www.w3.org/1999/xlink" x="0px" y="0px"
	 width="700px" height="700px" viewBox="0 0 700 700" enable-background="new 0 0 700 700" xml:space="preserve">
<g>
	<path fill="#FFFFFF" d="M253.07,608.458h-64.616c-17.816,0-32.31-14.492-32.31-32.309l0.004-452.3
		c0-17.816,14.492-32.309,32.31-32.309h64.616c5.949,0,10.771,4.82,10.771,10.77v495.38c-0.004,5.949-4.824,10.77-10.773,10.77
		L253.07,608.458z M188.453,113.078c-5.938,0-10.771,4.832-10.771,10.77v452.31c0,5.938,4.832,10.77,10.771,10.77h53.848v-473.85
		H188.453z"/>
	<path fill="#FFFFFF" d="M533.079,608.458H253.08c-5.949,0-10.771-4.82-10.771-10.77v-495.38c0-5.949,4.82-10.77,10.771-10.77
		h279.999c17.816,0,32.31,14.492,32.31,32.309v452.31c0,17.812-14.492,32.305-32.31,32.305V608.458z M263.85,586.919h269.229
		c5.938,0,10.771-4.832,10.771-10.77v-452.3c0-5.938-4.832-10.77-10.771-10.77H263.85V586.919z"/>
	<path fill="#FFFFFF" d="M188.46,177.688h-43.078c-5.949,0-10.771-4.82-10.771-10.77s4.82-10.77,10.771-10.77h43.078
		c5.949,0,10.77,4.82,10.77,10.77S194.409,177.688,188.46,177.688z"/>
	<path fill="#FFFFFF" d="M188.46,242.308h-43.078c-5.949,0-10.771-4.82-10.771-10.77c0-5.949,4.82-10.77,10.771-10.77h43.078
		c5.949,0,10.77,4.82,10.77,10.77C199.23,237.483,194.409,242.308,188.46,242.308z"/>
	<path fill="#FFFFFF" d="M188.46,479.229h-43.078c-5.949,0-10.771-4.82-10.771-10.771c0-5.949,4.82-10.771,10.771-10.771h43.078
		c5.949,0,10.77,4.82,10.77,10.771C199.23,474.407,194.409,479.229,188.46,479.229z"/>
	<path fill="#FFFFFF" d="M188.46,543.848h-43.078c-5.949,0-10.771-4.82-10.771-10.77c0-5.95,4.82-10.771,10.771-10.771h43.078
		c5.949,0,10.77,4.82,10.77,10.771C199.23,539.023,194.409,543.848,188.46,543.848z"/>
	<path fill="#FFFFFF" d="M500.77,339.228H306.92c-5.949,0-10.771-4.82-10.771-10.77v-86.152c0-5.949,4.82-10.77,10.771-10.77h193.85
		c5.949,0,10.77,4.82,10.77,10.77v86.152C511.539,334.407,506.715,339.228,500.77,339.228z M317.69,317.689H490v-64.617H317.69
		V317.689z"/>
	<path fill="#FFFFFF" d="M500.77,403.848H306.92c-5.949,0-10.771-4.82-10.771-10.77s4.82-10.77,10.771-10.77h193.85
		c5.949,0,10.77,4.82,10.77,10.77C511.539,399.023,506.715,403.848,500.77,403.848z"/>
	<path fill="#FFFFFF" d="M500.77,468.458H306.92c-5.949,0-10.771-4.82-10.771-10.771c0-5.949,4.82-10.77,10.771-10.77h193.85
		c5.949,0,10.77,4.82,10.77,10.77S506.715,468.458,500.77,468.458z"/>
</g>
</svg>
