<?xml version="1.0" encoding="utf-8"?>
<!-- Generator: Adobe Illustrator 16.0.0, SVG Export Plug-In . SVG Version: 6.00 Build 0)  -->
<!DOCTYPE svg PUBLIC "-//W3C//DTD SVG 1.1//EN" "http://www.w3.org/Graphics/SVG/1.1/DTD/svg11.dtd">
<svg version="1.1" id="Layer_1" xmlns="http://www.w3.org/2000/svg" xmlns:xlink="http://www.w3.org/1999/xlink" x="0px" y="0px"
	 width="700px" height="700px" viewBox="0 0 700 700" enable-background="new 0 0 700 700" xml:space="preserve">
<g>
	<path fill="#FFFFFF" d="M183.751,542.499h-8.75v-105c0-4.832-3.918-8.75-8.75-8.75s-8.75,3.918-8.75,8.75v105h-61.25
		c-4.832,0-8.75,3.918-8.75,8.75v35c0,6.961,2.766,13.641,7.688,18.563c4.922,4.921,11.602,7.688,18.562,7.688h52.5
		c6.961,0,13.642-2.766,18.563-7.688s7.688-11.603,7.688-18.563v-35c0-2.32-0.922-4.547-2.563-6.188
		S186.071,542.499,183.751,542.499L183.751,542.499z M175.001,586.249c0,2.32-0.922,4.547-2.563,6.188s-3.867,2.563-6.188,2.563
		h-52.5c-4.832,0-8.75-3.918-8.75-8.75v-26.25h70V586.249z"/>
	<path fill="#FFFFFF" d="M113.751,524.999c2.32,0,4.547-0.922,6.188-2.563s2.563-3.867,2.563-6.188v-131.25h35v17.5
		c0,4.832,3.918,8.75,8.75,8.75s8.75-3.918,8.75-8.75v-26.25c0-2.32-0.922-4.547-2.563-6.188s-3.867-2.563-6.188-2.563h-17.5
		v-18.742c7.492-1.934,14.129-6.297,18.879-12.402c4.75-6.109,7.344-13.617,7.371-21.355c0-18.023-13.633-52.5-35-52.5
		s-35,34.477-35,52.5c0.027,7.738,2.621,15.246,7.371,21.355c4.75,6.105,11.387,10.469,18.879,12.402v18.742h-17.5
		c-4.832,0-8.75,3.918-8.75,8.75v140c0,2.32,0.922,4.547,2.563,6.188S111.431,524.999,113.751,524.999L113.751,524.999z
		 M122.501,314.999c0-13.125,10.953-35,17.5-35s17.5,21.875,17.5,35c-0.02,6.223-3.352,11.965-8.75,15.066v-6.316
		c0-4.832-3.918-8.75-8.75-8.75s-8.75,3.918-8.75,8.75v6.316C125.853,326.963,122.521,321.221,122.501,314.999z"/>
	<path fill="#FFFFFF" d="M603.751,542.499h-8.75v-105c0-4.832-3.919-8.75-8.75-8.75c-4.832,0-8.75,3.918-8.75,8.75v105h-61.25
		c-4.832,0-8.75,3.918-8.75,8.75v35c0,6.961,2.765,13.641,7.688,18.563c4.922,4.921,11.602,7.688,18.562,7.688h52.5
		c6.961,0,13.641-2.766,18.562-7.688c4.922-4.922,7.688-11.603,7.688-18.563v-35c0-2.32-0.922-4.547-2.563-6.188
		s-3.867-2.563-6.188-2.563H603.751z M595.001,586.249c0,2.32-0.922,4.547-2.563,6.188s-3.867,2.563-6.188,2.563h-52.5
		c-4.832,0-8.75-3.918-8.75-8.75v-26.25h70V586.249z"/>
	<path fill="#FFFFFF" d="M533.751,524.999c2.32,0,4.547-0.922,6.188-2.563s2.563-3.867,2.563-6.188v-131.25h35v17.5
		c0,4.832,3.918,8.75,8.75,8.75c4.831,0,8.75-3.918,8.75-8.75v-26.25c0-2.32-0.922-4.547-2.563-6.188s-3.867-2.563-6.188-2.563
		h-17.5v-18.742c7.492-1.934,14.129-6.297,18.879-12.402c4.75-6.109,7.344-13.617,7.371-21.355c0-18.023-13.634-52.5-35-52.5
		c-21.367,0-35,34.477-35,52.5c0.027,7.738,2.621,15.246,7.371,21.355c4.75,6.105,11.387,10.469,18.879,12.402v18.742h-17.5
		c-4.832,0-8.75,3.918-8.75,8.75v140c0,2.32,0.922,4.547,2.563,6.188S531.431,524.999,533.751,524.999L533.751,524.999z
		 M542.501,314.999c0-13.125,10.952-35,17.5-35c6.547,0,17.5,21.875,17.5,35c-0.02,6.223-3.353,11.965-8.75,15.066v-6.316
		c0-4.832-3.919-8.75-8.75-8.75c-4.832,0-8.75,3.918-8.75,8.75v6.316C545.853,326.963,542.52,321.221,542.501,314.999z"/>
	<path fill="#FFFFFF" d="M481.251,419.999h-43.75v-35h8.75c2.32,0,4.547-0.922,6.188-2.563c1.64-1.641,2.563-3.867,2.563-6.188v-35
		c0-4.832-3.919-8.75-8.75-8.75c-4.832,0-8.75,3.918-8.75,8.75v26.25h-17.5v-122.5h17.5v61.25c0,4.832,3.918,8.75,8.75,8.75
		c4.831,0,8.75-3.918,8.75-8.75V219.03c0.02-8.105-3.199-15.887-8.941-21.605c-4.536-4.539-10.384-7.531-16.716-8.559
		c-6.336-1.027-12.828-0.035-18.565,2.836l-3.438,1.75c-2.957,1.477-4.828,4.492-4.84,7.797v175c0,2.32,0.922,4.547,2.563,6.188
		s3.867,2.563,6.188,2.563h8.75v35h-61.25v-35h8.75c2.32,0,4.547-0.922,6.188-2.563s2.563-3.867,2.563-6.188v-175
		c0-3.316-1.871-6.348-4.84-7.832l-3.438-1.75c-5.734-2.875-12.23-3.871-18.566-2.844c-6.332,1.027-12.18,4.027-16.715,8.566
		c-5.75,5.73-8.973,13.52-8.941,21.641v52.219c0,4.832,3.918,8.75,8.75,8.75s8.75-3.918,8.75-8.75V245h17.5v122.5h-17.5v-61.25
		c0-4.832-3.918-8.75-8.75-8.75s-8.75,3.918-8.75,8.75v70c0,2.32,0.922,4.547,2.563,6.188s3.867,2.563,6.188,2.563h8.75v35h-61.25
		v-35h8.75c2.32,0,4.547-0.922,6.188-2.563s2.563-3.867,2.563-6.188V220.5c0-4.102-1.438-8.07-4.066-11.215
		c-2.629-3.148-6.277-5.273-10.309-6.004l-3.125-0.586v-1.445c0-6.254-3.336-12.031-8.75-15.156s-12.086-3.125-17.5,0
		s-8.75,8.902-8.75,15.156v175c0,2.32,0.922,4.547,2.563,6.188s3.867,2.563,6.188,2.563h8.75v35h-43.75
		c-4.832,0-8.75,3.917-8.75,8.749v35c0,2.32,0.922,4.548,2.563,6.188s3.867,2.563,6.188,2.563h227.5c4.832,0,8.75-3.918,8.75-8.751
		c0-4.832-3.918-8.75-8.75-8.75h-218.75v-17.5h245v78.751c-0.016,11.598-4.629,22.719-12.828,30.922
		c-8.203,8.199-19.324,12.812-30.922,12.828h-157.5c-11.598-0.016-22.719-4.629-30.922-12.828
		c-8.199-8.203-12.813-19.324-12.828-30.922v-17.5c0-4.832-3.918-8.75-8.75-8.75s-8.75,3.918-8.75,8.75v17.5
		c0.02,16.237,6.477,31.809,17.961,43.289c11.479,11.483,27.051,17.94,43.289,17.961v26.25c0,2.32,0.922,4.547,2.563,6.188
		s3.867,2.563,6.188,2.563h140c2.32,0,4.547-0.922,6.188-2.563s2.563-3.867,2.563-6.188V577.5
		c16.237-0.02,31.809-6.477,43.289-17.961c11.483-11.48,17.94-27.052,17.961-43.289v-87.501c0-2.32-0.922-4.547-2.563-6.188
		S483.572,420,481.251,419.999L481.251,419.999z M420.001,206.749c3.996-1.449,8.448-0.859,11.93,1.578
		c3.484,2.441,5.563,6.422,5.57,10.672v8.496h-17.5V206.749z M341.251,227.495v-8.469c0.008-4.254,2.085-8.234,5.57-10.672
		c3.48-2.438,7.934-3.027,11.93-1.578v20.719H341.251z M280.001,367.495h-17.5v-122.5h17.5V367.495z M262.501,202.695
		c0,4.098,1.441,8.066,4.07,11.211c2.625,3.145,6.273,5.27,10.305,6l3.125,0.586v7h-17.5V202.695z M411.251,594.995h-122.5v-17.5
		h122.5V594.995z"/>
	<path fill="#FFFFFF" d="M376.251,516.249c0-6.961-2.766-13.641-7.688-18.563c-4.923-4.921-11.603-7.688-18.563-7.688
		s-13.641,2.766-18.563,7.688c-4.921,4.923-7.688,11.603-7.688,18.563s2.766,13.641,7.688,18.563
		c4.923,4.921,11.603,7.688,18.563,7.688s13.641-2.766,18.563-7.688C373.485,529.889,376.251,523.209,376.251,516.249z
		 M341.251,516.249c0-3.539,2.133-6.73,5.401-8.082c3.27-1.355,7.031-0.609,9.536,1.895c2.504,2.504,3.25,6.266,1.894,9.535
		c-1.352,3.27-4.543,5.402-8.081,5.402C345.169,524.999,341.251,521.081,341.251,516.249z"/>
	<path fill="#FFFFFF" d="M411.251,516.249c0-4.832,3.918-8.75,8.75-8.75c4.831,0,8.75,3.918,8.75,8.75s3.918,8.75,8.75,8.75
		c4.831,0,8.75-3.918,8.75-8.75c0-9.379-5.004-18.043-13.125-22.734c-8.121-4.688-18.13-4.688-26.25,0
		c-8.121,4.691-13.125,13.355-13.125,22.734c0,4.832,3.918,8.75,8.75,8.75C407.332,524.999,411.251,521.081,411.251,516.249z"/>
	<path fill="#FFFFFF" d="M306.251,516.249c0-6.961-2.766-13.641-7.688-18.563c-4.922-4.921-11.603-7.688-18.563-7.688
		s-13.641,2.766-18.562,7.688c-4.921,4.923-7.688,11.603-7.688,18.563s2.766,13.641,7.688,18.563
		c4.922,4.921,11.602,7.688,18.562,7.688s13.642-2.766,18.563-7.688C303.485,529.889,306.251,523.209,306.251,516.249z
		 M271.251,516.249c0-3.539,2.133-6.73,5.402-8.082c3.27-1.355,7.031-0.609,9.535,1.895s3.25,6.266,1.895,9.535
		c-1.352,3.27-4.543,5.402-8.082,5.402C275.169,524.999,271.251,521.081,271.251,516.249z"/>
	<path fill="#FFFFFF" d="M411.251,157.499c2.32,0,4.547,0.922,6.188,2.563c1.64,1.641,2.563,3.867,2.563,6.188
		c0,4.832,3.918,8.75,8.75,8.75c4.831,0,8.75-3.918,8.75-8.75c0-6.961-2.766-13.641-7.688-18.562
		c-4.923-4.921-11.603-7.688-18.563-7.688c-4.832,0-8.75-3.918-8.75-8.75s3.918-8.75,8.75-8.75h35
		c6.961,0,13.641-2.766,18.563-7.688c4.921-4.922,7.688-11.602,7.688-18.562c0-4.832-3.919-8.75-8.75-8.75
		c-4.832,0-8.75,3.918-8.75,8.75c0,2.32-0.922,4.547-2.563,6.188S448.572,105,446.251,105h-35c-9.379,0-18.044,5.004-22.734,13.125
		c-4.688,8.121-4.688,18.129,0,26.25C393.208,152.496,401.871,157.5,411.251,157.499L411.251,157.499z"/>
	<path fill="#FFFFFF" d="M332.501,157.499c2.32,0,4.547,0.922,6.188,2.563c1.64,1.641,2.563,3.867,2.563,6.188
		c0,4.832,3.918,8.75,8.75,8.75c4.831,0,8.75-3.918,8.75-8.75c0-6.961-2.766-13.641-7.688-18.562
		c-4.923-4.921-11.603-7.688-18.563-7.688c-4.832,0-8.75-3.918-8.75-8.75s3.918-8.75,8.75-8.75h17.5
		c6.961,0,13.641-2.766,18.563-7.688c4.921-4.922,7.688-11.602,7.688-18.562c0-4.832-3.919-8.75-8.75-8.75
		c-4.832,0-8.75,3.918-8.75,8.75c0,2.32-0.922,4.547-2.563,6.188S352.322,105,350.001,105h-17.5
		c-9.379,0-18.044,5.004-22.734,13.125c-4.688,8.121-4.688,18.129,0,26.25C314.458,152.496,323.121,157.5,332.501,157.499
		L332.501,157.499z"/>
	<path fill="#FFFFFF" d="M245.001,157.499c2.32,0,4.547,0.922,6.188,2.563s2.563,3.867,2.563,6.188c0,4.832,3.918,8.75,8.75,8.75
		s8.75-3.918,8.75-8.75c0-6.961-2.766-13.641-7.688-18.562S251.961,140,245.001,140h-17.5c-4.832,0-8.75-3.918-8.75-8.75
		s3.918-8.75,8.75-8.75h43.75c6.961,0,13.642-2.766,18.563-7.688s7.688-11.602,7.688-18.562c0-4.832-3.918-8.75-8.75-8.75
		s-8.75,3.918-8.75,8.75c0,2.32-0.922,4.547-2.563,6.188S273.572,105,271.251,105h-43.75c-9.379,0-18.043,5.004-22.734,13.125
		c-4.688,8.121-4.688,18.129,0,26.25c4.691,8.121,13.355,13.125,22.734,13.125L245.001,157.499z"/>
</g>
</svg>
