<?xml version="1.0" encoding="utf-8"?>
<!-- Generator: Adobe Illustrator 16.0.0, SVG Export Plug-In . SVG Version: 6.00 Build 0)  -->
<!DOCTYPE svg PUBLIC "-//W3C//DTD SVG 1.1//EN" "http://www.w3.org/Graphics/SVG/1.1/DTD/svg11.dtd">
<svg version="1.1" id="Layer_1" xmlns="http://www.w3.org/2000/svg" xmlns:xlink="http://www.w3.org/1999/xlink" x="0px" y="0px"
	 width="700px" height="700px" viewBox="0 0 700 700" enable-background="new 0 0 700 700" xml:space="preserve">
<g>
	<path fill="#FFFFFF" d="M598.878,172.033L370.238,98.795c-0.172-2.469-1.207-4.801-2.93-6.578c-1.984-1.98-4.672-3.094-7.473-3.098
		l-255.5,0.629c-2.809,0.004-5.5,1.125-7.48,3.117c-1.984,1.992-3.09,4.688-3.082,7.496l1.27,453.11
		c0.004,2.801,1.121,5.488,3.105,7.465s4.672,3.086,7.474,3.078l206.39-0.594l146.549,46.952c1.043,0.336,2.133,0.508,3.227,0.508
		c4.598,0,8.668-2.973,10.074-7.352L605.721,185.34c0.859-2.672,0.617-5.578-0.668-8.074s-3.508-4.379-6.184-5.234L598.878,172.033z
		 M522.062,250.783l-77.691,242.63c-13.651-0.461-26.565,6.191-34.125,17.569l-38.684-12.391v-9.766l-0.227-80.598v0.004
		c8.449,3.656,17.484,5.773,26.68,6.246c1.398,0.086,2.793,0.121,4.191,0.121c15.017-0.063,29.699-4.414,42.328-12.535
		c12.629-8.125,22.672-19.684,28.957-33.324c5.574-12.137,7.934-25.504,6.844-38.812c-1.848-22.98-13.684-43.988-32.375-57.48
		c-4.18-2.961-8.629-5.527-13.285-7.664c-2.434-1.094-4.988-2.172-7.473-3.012h0.004c-18.397-6.277-38.479-5.418-56.272,2.406
		l-0.113-39.637l5.637-17.551c6.824,0.246,13.598-1.258,19.676-4.375c7.266-3.711,13.168-9.625,16.863-16.898l91.762,28
		c-0.793,7.168,0.406,14.414,3.457,20.949c3.055,6.531,7.844,12.098,13.848,16.09L522.062,250.783z M454.207,360.013
		c-4.797,10.438-12.613,19.199-22.441,25.148c-9.824,5.949-21.211,8.816-32.684,8.23c-7.23-0.355-14.324-2.102-20.896-5.133
		c-2.426-1.082-4.77-2.348-7-3.789l-0.063-20.781c0.387,0.289,0.762,0.621,1.129,0.875c2.371,1.906,4.973,3.508,7.746,4.758
		c5.301,2.449,11.074,3.715,16.914,3.711c3.648,0.004,7.277-0.5,10.789-1.496c11.703-3.137,21.375-11.363,26.352-22.41
		c1.199-2.516,2.105-5.156,2.715-7.875c0.039-0.16,0.066-0.324,0.086-0.488c1.555-6.93,1.25-14.145-0.883-20.918
		s-6.023-12.859-11.27-17.645c-3.148-2.996-6.781-5.434-10.746-7.219c-3.438-1.566-7.066-2.684-10.789-3.332l-3.289-0.344
		c-2.207-0.164-4.289,1.035-5.25,3.027c-0.957,2.016-0.535,4.418,1.051,5.988l1.707,1.75c4.18,5.051,6.676,11.289,7.129,17.832
		c0.313,4.934-0.621,9.867-2.711,14.348c-4.43,9.613-13.559,16.207-24.07,17.396c-1.883,0.301-3.789,0.383-5.688,0.246
		c-0.293-0.031-0.586-0.031-0.875,0l-0.168-63.75c14.613-9.629,32.863-11.949,49.422-6.285c1.864,0.648,3.695,1.391,5.485,2.223
		c3.422,1.57,6.691,3.453,9.765,5.625c13.646,9.867,22.281,25.219,23.625,42C460.07,341.423,458.316,351.174,454.207,360.013
		L454.207,360.013z M411.762,305.665c2.109,1.172,4.059,2.605,5.801,4.27c3.938,3.574,6.844,8.141,8.418,13.219
		s1.758,10.484,0.535,15.656c0,0.141-0.051,0.281-0.07,0.438c-0.445,1.879-1.09,3.703-1.918,5.445
		c-3.695,8.203-10.887,14.309-19.582,16.625c-6.043,1.746-12.492,1.484-18.375-0.746c8.668-2.73,16.172-8.281,21.328-15.762
		c5.152-7.484,7.664-16.477,7.125-25.547C414.707,314.579,413.606,309.981,411.762,305.665L411.762,305.665z M350.231,446.686
		c-0.668,0.594-1.254,1.27-1.75,2.016c-9.469,14.116-25.229,22.729-42.227,23.081c-18.949-0.367-37.371-6.323-52.945-17.124
		c25.957-24.625,61.27-36.863,96.898-33.582L350.231,446.686z M349.27,110.305l0.324,112.66v0.113l0.41,134.57l0.121,42.246
		c-42.711-3.449-84.75,12.211-114.8,42.762c-57.397-37.309-98-22.941-119.43-8.27l-0.938-323.5L349.27,110.305z M115.951,462.115
		c5.102-6.238,43.207-47.855,114.62,2.859l9.702,6.547c18.771,12.977,40.813,20.41,63.605,21.453c1.031,0,2.055,0,3.07-0.051
		c15.772-0.352,31.004-5.836,43.375-15.629l0.183,64.836l-36.925,0.086h-0.086l-197.32,0.586L115.951,462.115z M455,586.955
		l-85.75-27.478c0.41-0.566,0.762-1.176,1.059-1.809c0.242-0.359,0.457-0.734,0.648-1.121c0.512-1.238,0.777-2.57,0.777-3.91
		l-0.07-31.815l40.862,13.047c5.551,1.746,11.474-1.297,13.281-6.824c1.496-4.539,4.715-8.309,8.961-10.496
		c4.25-2.184,9.184-2.613,13.746-1.195c5.559,1.762,11.496-1.305,13.272-6.859l83.259-260.04c1.742-5.566-1.355-11.496-6.922-13.246
		c-4.508-1.441-8.262-4.605-10.449-8.801s-2.633-9.086-1.23-13.609c0.199-0.613,0.43-1.219,0.691-1.809
		c1.238-2.77,1.227-5.938-0.031-8.699s-3.641-4.848-6.543-5.73l-111.2-33.977c-2.934-0.895-6.113-0.469-8.711,1.164
		c-2.598,1.629-4.363,4.309-4.832,7.34c-0.137,0.793-0.332,1.574-0.586,2.336c-1.418,4.547-4.602,8.328-8.84,10.5
		c-4.336,2.215-9.375,2.602-14,1.07c-0.574-0.121-1.16-0.191-1.75-0.203l-0.086-29.516v0.004c1.965,3.52,2.285,7.727,0.875,11.504
		c2.086-6.758,9.25-10.551,16.012-8.489c-6.5-2.805-9.5-10.344-6.711-16.852c-1.609,4.512-5.477,7.844-10.176,8.77l-0.086-29.137
		l211.87,67.875L455,586.955z"/>
	<path fill="#FFFFFF" d="M547.998,227.673c2.081-6.762,9.246-10.559,16.012-8.488c-6.496-2.809-9.496-10.344-6.711-16.852
		c-2.086,6.758-9.246,10.555-16.012,8.488C547.783,213.633,550.783,221.165,547.998,227.673z"/>
	<path fill="#FFFFFF" d="M442.258,539.123c-2.09,6.758-9.25,10.551-16.017,8.488c6.492,2.813,9.492,10.344,6.711,16.852
		c2.086-6.758,9.242-10.551,16.004-8.488C442.464,553.162,439.472,545.627,442.258,539.123L442.258,539.123z"/>
	<path fill="#FFFFFF" d="M146.858,326.113c8.168,14.957,20.203,27.445,34.855,36.152c14.647,8.707,31.367,13.313,48.41,13.341h0.219
		c25.125-0.105,49.18-10.181,66.883-28.009c17.703-17.828,27.608-41.953,27.535-67.078c-0.07-25.125-10.113-49.195-27.918-66.922
		c-2.238-2.223-4.574-4.32-7-6.293v0.004c-16.892-13.828-38.066-21.348-59.896-21.281h-0.246
		c-33.41,0.035-64.328,17.68-81.348,46.434c-17.023,28.75-17.625,64.344-1.582,93.652H146.858z M177.858,228.902
		c13.734-13.891,32.453-21.703,51.984-21.691h0.184c19.48-0.059,38.176,7.648,51.957,21.41c3.445,3.426,6.547,7.18,9.258,11.211
		c9.945,14.824,14.168,32.758,11.875,50.461s-10.938,33.973-24.332,45.773c-13.391,11.805-30.617,18.34-48.469,18.391h-0.191
		c-19.496-0.039-38.188-7.781-52-21.539c-13.816-13.754-21.633-32.414-21.754-51.91
		C156.288,261.465,164.026,242.703,177.858,228.902L177.858,228.902z"/>
	<path fill="#FFFFFF" d="M187.068,329.923c-0.023,1.949,1.039,3.754,2.754,4.684c1.719,0.926,3.809,0.824,5.43-0.266l38.142-24.824
		l37.457,23.896v0.004c1.934,1.207,4.422,1.055,6.195-0.379c1.781-1.438,2.426-3.864,1.594-5.992l-16.082-41.816l28.594-22.277
		c1.801-1.387,2.508-3.773,1.75-5.914c-0.594-2.258-2.727-3.754-5.047-3.547l-37.363,0.34l-12.409-32.242
		c-0.785-2.035-2.742-3.383-4.926-3.395c-2.176,0.004-4.133,1.336-4.934,3.359c-4.786,12.25-8.984,23.012-12.73,32.609l-38.77,0.359
		l-0.004,0.004c-2.254-0.027-4.277,1.395-5.016,3.527s-0.035,4.5,1.754,5.879l29.172,23.422
		C187.077,327.702,187.069,328.995,187.068,329.923L187.068,329.923z M211.299,294.318l11.664,9.363l-20.301,13.211
		C204.978,310.759,207.982,302.927,211.299,294.318L211.299,294.318z M230.888,296.478l-15.602-12.52
		c2.414-6.246,4.926-12.723,7.473-19.25l20.483-0.191l6.613,17.219L230.888,296.478z M262.994,315.841l-21.875-13.938l12.694-9.887
		L262.994,315.841z M272.314,264.216l-13.73,10.691l-4.043-10.5L272.314,264.216z M233.107,238.122l6.125,15.82l-12.25,0.113
		c2.016-5.402,4.109-10.777,6.121-15.938L233.107,238.122z M191.619,264.962l19.723-0.184c-1.691,4.359-3.27,8.441-4.734,12.25
		L191.619,264.962z"/>
</g>
</svg>
