<?xml version="1.0" encoding="utf-8"?>
<!-- Generator: Adobe Illustrator 16.0.0, SVG Export Plug-In . SVG Version: 6.00 Build 0)  -->
<!DOCTYPE svg PUBLIC "-//W3C//DTD SVG 1.1//EN" "http://www.w3.org/Graphics/SVG/1.1/DTD/svg11.dtd">
<svg version="1.1" id="Layer_1" xmlns="http://www.w3.org/2000/svg" xmlns:xlink="http://www.w3.org/1999/xlink" x="0px" y="0px"
	 width="129.444px" height="127px" viewBox="0 0 129.444 127" enable-background="new 0 0 129.444 127" xml:space="preserve">
<g>
	<g>
		<g>
			<g>
				<path fill-rule="evenodd" clip-rule="evenodd" fill="#333333" d="M73.506,48.022c-0.427-0.812-0.927-1.583-1.511-2.271
					c-0.645-0.771-1.447-1.343-2.322-1.708c0.521-0.896,0.823-1.948,0.823-3.063c0-0.947-0.114-1.916-0.322-2.854
					c0.5-0.042,1.021-0.063,1.562-0.063c1.813,0,3.678,0.271,5.25,0.761c1.489,0.458,2.291,1.01,2.404,1.322
					c0.199,0.5-0.344,2.198-2.134,4.395C76.152,45.897,74.861,47.095,73.506,48.022z M74.892,53.594
					c0.479,2.781,0.146,4.541-0.229,4.854c-0.083,0.072-0.354,0.229-1.093,0.229c-1.344,0-3.322-0.521-5.166-1.363
					c-1.135-0.511-2.594-1.323-3.947-2.469c0.406-0.375,0.792-0.771,1.146-1.188c0.875-1.041,1.343-2.291,1.427-3.552
					c0.541,0.157,1.104,0.23,1.678,0.23c0.728,0,1.457-0.126,2.176-0.396c0.854-0.323,1.677-0.75,2.447-1.25
					C74.048,50.157,74.589,51.844,74.892,53.594z M59.812,57.313c-1.854,0.843-3.833,1.363-5.166,1.363
					c-0.75,0-1.021-0.156-1.104-0.229c-0.365-0.313-0.698-2.073-0.229-4.854c0.302-1.76,0.854-3.448,1.583-4.926
					c0.781,0.51,1.614,0.948,2.478,1.271c0.719,0.27,1.458,0.396,2.177,0.396c0.552,0,1.104-0.073,1.635-0.219
					c0.083,1.26,0.551,2.5,1.416,3.541c0.354,0.417,0.75,0.812,1.156,1.188C62.405,55.99,60.936,56.801,59.812,57.313z M51,44.543
					c-1.791-2.197-2.333-3.895-2.135-4.395c0.114-0.313,0.916-0.864,2.406-1.322c1.572-0.49,3.437-0.761,5.259-0.761
					c0.698,0,1.375,0.032,2.021,0.116c-0.208,0.926-0.323,1.864-0.323,2.801c0,1.052,0.261,2.042,0.729,2.906
					c-1.031,0.344-1.989,0.968-2.739,1.864c-0.583,0.688-1.073,1.447-1.5,2.24C53.375,47.075,52.095,45.887,51,44.543z
					 M68.664,44.679c-0.677,0.791-1.562,1.375-2.551,1.697l-0.51-1.135c0.052-0.323,0.083-0.656,0.083-0.979
					c0.521-0.156,1.073-0.229,1.614-0.229c0.573,0,1.136,0.083,1.677,0.25C68.882,44.418,68.779,44.554,68.664,44.679z
					 M64.436,47.939l0.875-0.875l0.104-0.042c0.146-0.021,0.292-0.052,0.448-0.093c0.427,0.77,0.677,1.635,0.708,2.531
					C65.759,49.126,65.029,48.616,64.436,47.939z M64.133,48.292c0.667,0.75,1.51,1.323,2.437,1.667
					c-0.051,1.24-0.509,2.437-1.322,3.396c-0.354,0.427-0.739,0.823-1.146,1.188c-0.396-0.365-0.781-0.761-1.146-1.188
					c-0.802-0.948-1.261-2.146-1.323-3.385C62.582,49.625,63.446,49.053,64.133,48.292z M62.415,46.824l0.979,0.449
					c0.135,0.229,0.281,0.447,0.438,0.656c-0.604,0.688-1.354,1.219-2.198,1.552C61.676,48.543,61.937,47.626,62.415,46.824z
					 M60.916,44.033c0.562,0,1.124,0.083,1.656,0.25c0,0.313,0.031,0.635,0.084,0.958l-0.449,0.99
					c-1.042-0.427-1.916-1.156-2.541-2.063C60.072,44.075,60.488,44.033,60.916,44.033z M64.415,44.293l-0.313,0.021L63.8,44.293
					c-0.25-0.135-0.5-0.25-0.76-0.343c0.042-1.125,0.438-2.208,1.094-3.094c0.646,0.885,1.031,1.958,1.094,3.083
					C64.945,44.033,64.675,44.147,64.415,44.293z M65.269,46.585c-0.072,0.011-0.146,0.042-0.208,0.093l-0.385,0.167
					c-0.083,0.042-0.156,0.115-0.209,0.198c-0.072,0.125-0.146,0.239-0.229,0.354l-0.729-0.719
					c-0.063-0.062-0.146-0.115-0.239-0.125c-0.198-0.042-0.386-0.094-0.583-0.157c0.104-0.135,0.208-0.271,0.312-0.396
					c0.063-0.073,0.104-0.167,0.115-0.26l0.083-1.042l0.468,0.042c0.074,0.042,0.146,0.063,0.219,0.063l0.042-0.01l0.177-0.011
					l0.187,0.011l0.031,0.01c0.084,0,0.157-0.021,0.219-0.063l0.468-0.042l0.094,1.042c0.011,0.094,0.042,0.188,0.104,0.26
					c0.125,0.146,0.25,0.292,0.355,0.448L65.269,46.585z M59.01,38.243c0.916,0.135,1.771,0.354,2.552,0.656
					c0.905,0.344,1.666,0.896,2.27,1.583c-0.729,0.958-1.167,2.114-1.25,3.322c-0.542-0.156-1.104-0.24-1.666-0.24
					c-0.51,0-1.01,0.063-1.5,0.188c-0.468-0.823-0.729-1.771-0.729-2.771C58.687,40.118,58.801,39.19,59.01,38.243z M59.551,49.876
					c-0.688,0-1.364-0.125-2.01-0.365c-0.812-0.312-1.635-0.739-2.437-1.26c0.438-0.823,0.927-1.563,1.468-2.198
					c0.698-0.833,1.615-1.438,2.625-1.76c0.667,1.042,1.636,1.864,2.792,2.344c-0.532,0.926-0.813,1.958-0.823,3
					C60.645,49.792,60.103,49.876,59.551,49.876z M67.039,49.625c-0.01-0.979-0.26-1.947-0.729-2.833
					c1.281-0.427,2.375-1.26,3.115-2.354c0.853,0.344,1.613,0.886,2.218,1.615c0.542,0.635,1.041,1.396,1.478,2.218
					c-0.791,0.51-1.604,0.938-2.405,1.239c-0.646,0.24-1.323,0.365-2.009,0.365C68.132,49.876,67.582,49.792,67.039,49.625z
					 M70.039,40.981c0,1.021-0.281,2.031-0.802,2.895c-0.625-0.208-1.281-0.312-1.938-0.312c-0.541,0-1.094,0.083-1.625,0.229
					c-0.083-1.208-0.521-2.364-1.25-3.312c0.604-0.688,1.375-1.239,2.27-1.583c0.917-0.354,1.928-0.594,3.021-0.718
					C69.923,39.139,70.039,40.086,70.039,40.981z M61.061,33.108c1.428-2.427,2.813-3.562,3.302-3.562
					c0.531,0,1.927,1.104,3.354,3.562c0.854,1.479,1.5,3.062,1.885,4.624c-1.052,0.125-2.094,0.365-3.072,0.74
					c-0.958,0.354-1.76,0.927-2.396,1.646c-0.635-0.719-1.447-1.292-2.406-1.646c-0.833-0.323-1.708-0.542-2.604-0.677
					C59.52,36.232,60.176,34.619,61.061,33.108z M79.829,39.982c-0.417-1.094-4.093-2.385-8.093-2.385
					c-0.551,0-1.114,0.031-1.666,0.083c-1.135-4.582-4.239-8.592-5.707-8.592c-1.365,0-4.551,4.051-5.708,8.644
					c-0.708-0.093-1.427-0.135-2.125-0.135c-4.009,0-7.686,1.291-8.102,2.385c-0.521,1.385,2.156,5.749,6.072,8.425
					c-2.125,4.28-2.301,9.509-1.25,10.394c0.271,0.229,0.76,0.343,1.396,0.343c2.26,0,6.426-1.395,9.457-3.988
					c3.041,2.593,7.197,3.988,9.467,3.988c0.635,0,1.125-0.114,1.396-0.343c1.051-0.885,0.864-6.093-1.24-10.362
					C77.662,45.751,80.349,41.367,79.829,39.982z"/>
				<path fill-rule="evenodd" clip-rule="evenodd" fill="#333333" d="M64.249,27.13c-10.03,0-18.174,8.145-18.174,18.164
					c0,10.018,8.144,18.173,18.174,18.173c10.009,0,18.162-8.155,18.162-18.173C82.411,35.274,74.257,27.13,64.249,27.13z
					 M64.249,64.748c-10.738,0-19.465-8.728-19.465-19.454c0-10.728,8.728-19.455,19.465-19.455
					c10.717,0,19.443,8.727,19.443,19.455C83.692,56.021,74.965,64.748,64.249,64.748z"/>
				<path fill="#333333" d="M68.456,45.294c0,2.332-1.886,4.217-4.207,4.217c-2.333,0-4.218-1.885-4.218-4.217
					c0-2.323,1.885-4.208,4.218-4.208C66.57,41.086,68.456,42.971,68.456,45.294z"/>
			</g>
			<path fill-rule="evenodd" clip-rule="evenodd" fill="#333333" d="M64.249,71.518c-18.944,0-35.452-10.623-43.888-26.224
				c8.436-15.602,24.943-26.225,43.888-26.225c18.934,0,35.441,10.624,43.876,26.225C99.69,60.895,83.182,71.518,64.249,71.518z
				 M117.072,21.683c0-1.125-0.033-2.239-0.105-3.353c-1.02-0.271-2.04-0.563-3.071-0.854c0.124,1.396,0.188,2.791,0.188,4.207
				c0,7.238-1.563,14.123-4.343,20.329c-2.238-3.769-4.957-7.279-8.135-10.466C91.619,21.569,78.349,16.07,64.249,16.07
				c-14.123,0-27.381,5.499-37.368,15.476c-3.176,3.187-5.895,6.697-8.134,10.466c-2.792-6.207-4.342-13.091-4.342-20.329
				c0-0.708,0.021-1.416,0.052-2.124c-1.01,0.396-2.031,0.791-3.041,1.198l-0.01,0.926c0,8.332,1.926,16.372,5.54,23.611
				c-3.614,7.248-5.54,15.278-5.54,23.609l0.021,1.167c1.01,0.416,2.021,0.843,3.042,1.239c-0.042-0.792-0.063-1.594-0.063-2.406
				c0-7.228,1.551-14.112,4.342-20.319c2.239,3.771,4.958,7.28,8.134,10.467c9.987,9.978,23.246,15.476,37.368,15.476
				c14.101,0,27.37-5.498,37.356-15.476c3.178-3.188,5.896-6.696,8.135-10.467c2.645,5.896,4.176,12.394,4.322,19.226
				c0.979-0.593,1.947-1.187,2.937-1.771c-0.396-7.311-2.261-14.341-5.458-20.745C115.155,38.055,117.072,30.015,117.072,21.683z"/>
			<path fill-rule="evenodd" clip-rule="evenodd" fill="#333333" d="M65.445,1.427c-2.551,0-4.624,2.072-4.624,4.614
				c0,2.541,2.073,4.614,4.624,4.614h0.188c-1.344-1.135-2.146-2.802-2.146-4.614s0.802-3.489,2.146-4.614H65.445z M65.445,12.071
				c-3.332,0-6.04-2.708-6.04-6.03c0-3.333,2.708-6.041,6.04-6.041c0.802,0,1.574,0.156,2.312,0.469l1.573,0.656l-1.573,0.656
				c-1.729,0.718-2.842,2.385-2.842,4.26c0,1.864,1.114,3.542,2.842,4.26l1.573,0.656l-1.573,0.656
				C67.019,11.915,66.248,12.071,65.445,12.071z"/>
		</g>
		<g>
			<g>
				<path fill-rule="evenodd" clip-rule="evenodd" fill="#333333" d="M5.426,86.296c0.469-0.177,0.979-0.271,1.499-0.271
					c0.521,0,1,0.031,1.417,0.104c0.427,0.074,0.844,0.197,1.26,0.375c0.885,0.344,1.635,0.886,2.229,1.625l-1.093-5.749
					l-0.646-3.208L9.05,80.411C7.582,82.172,6.374,84.141,5.426,86.296z M13.686,103.5c0.156-0.77,0.239-1.374,0.239-1.832
					s-0.011-0.803-0.031-1.041l-0.073-0.74l-0.104-0.885c-0.042-0.323-0.083-0.697-0.125-1.125
					c-0.281-2.916-1.271-5.322-2.979-7.197c-0.76-0.832-1.583-1.468-2.458-1.895c-0.885-0.438-1.604-0.656-2.177-0.656
					c-0.563,0-1,0.041-1.313,0.114c-0.676,2.052-1.021,4.197-1.021,6.426c0,1.979,0.104,3.458,0.313,4.437
					c0.323,1.469,0.833,2.938,1.521,4.416H0c0.292-0.729,0.437-2.27,0.437-4.624c0-2.354,0.177-4.551,0.532-6.603
					c0.354-2.041,0.812-3.863,1.385-5.468c0.573-1.595,1.198-2.999,1.906-4.208c0.698-1.197,1.406-2.25,2.104-3.145
					c0.708-0.896,1.364-1.666,1.989-2.313c0.625-0.635,1.146-1.208,1.562-1.697h5.77c-0.521,0.604-0.792,1.438-0.792,2.51
					c0,0.489,0.083,1.291,0.24,2.406l0.458,3.332c1.677,11.539,3.176,18.132,4.488,19.787H13.686z"/>
				<path fill-rule="evenodd" clip-rule="evenodd" fill="#333333" d="M22.517,103.5c0.562-1.926,0.843-5.237,0.843-9.945
					c0-3.343-0.271-5.634-0.802-6.854c-0.219-0.498-0.615-1.072-1.178-1.707h6.51c-0.219,0.771-0.396,1.833-0.531,3.176
					c1.146-1.447,2.75-2.468,4.801-3.061c0.875-0.261,1.521-0.657,1.927-1.209c0.395,0.958,0.604,1.791,0.604,2.489
					s-0.042,1.343-0.115,1.938c-0.073,0.593-0.188,1.166-0.333,1.729c-0.313,1.208-0.74,2.146-1.261,2.822
					c-0.447-2.386-1.156-3.78-2.104-4.177c-1.104-0.479-2.177,0.167-3.229,1.938c-0.219,0.364-0.406,0.761-0.552,1.177
					c-0.011,0.281-0.021,0.563-0.021,0.864v0.875c0,4.708,0.281,8.02,0.843,9.945H22.517z"/>
				<path fill-rule="evenodd" clip-rule="evenodd" fill="#333333" d="M42.533,77.672c-0.261,0.938-0.385,2.063-0.385,3.375
					s0.021,2.156,0.084,2.521c0.052,0.364,0.135,0.656,0.26,0.885c0.229,0.364,0.688,0.542,1.354,0.542h4.915
					c0,0.688-0.166,1.209-0.499,1.583c-0.594,0.656-1.323,0.989-2.198,0.989c-0.427,0-0.802-0.063-1.135-0.188
					c-0.594-0.239-1.063-0.365-1.396-0.365c-0.323,0-0.594,0.063-0.802,0.188c-0.208,0.136-0.375,0.322-0.489,0.562
					c-0.229,0.438-0.333,1.396-0.333,2.875c0,1.479,0.042,3,0.136,4.551c0.094,1.553,0.323,2.844,0.687,3.896
					c0.365,1.042,0.927,1.823,1.667,2.354c0.75,0.521,1.771,0.78,3.083,0.78c0,0.387-0.26,0.834-0.771,1.365
					c-0.135,0.146-0.25,0.24-0.354,0.292c-2.156,0-3.78-0.261-4.853-0.771c-1.229-0.615-2.114-1.697-2.635-3.26
					c-0.531-1.594-0.792-3.947-0.792-7.062c0-2.718-0.073-4.332-0.219-4.821c-0.146-0.5-0.281-0.823-0.406-0.99
					c-0.146-0.178-0.5-0.406-1.062-0.677c0.76-0.573,1.51-1.635,2.26-3.208l0.916-1.916c0.646-1.469,1.198-2.416,1.656-2.854
					C41.68,77.881,42.117,77.672,42.533,77.672z"/>
				<path fill-rule="evenodd" clip-rule="evenodd" fill="#333333" d="M54.406,94.93c3.853-0.261,5.791-2.125,5.791-5.604
					c0-1.312-0.396-2.187-1.177-2.645c-0.271-0.146-0.625-0.219-1.063-0.219c-0.437,0-0.885,0.135-1.323,0.406
					c-0.447,0.271-0.844,0.707-1.167,1.322c-0.708,1.322-1.062,3.385-1.062,6.166V94.93z M63.508,97.272
					c0.448,0.292,0.656,0.802,0.656,1.531s-0.094,1.364-0.292,1.916c-0.188,0.553-0.531,1.063-1.021,1.542
					c-1.104,1.072-2.771,1.614-5.021,1.614c-2.613,0-4.603-0.969-5.978-2.896c-1.208-1.729-1.812-4.052-1.812-6.988
					c0-2.957,0.822-5.27,2.458-6.957c1.551-1.604,3.655-2.406,6.301-2.406c1.843,0,3.291,0.543,4.322,1.615
					c0.823,0.854,1.229,1.843,1.229,2.957c0,1.125-0.219,2.125-0.646,3.031c-0.437,0.895-1.072,1.666-1.916,2.313
					c-1.739,1.342-4.155,2.051-7.28,2.123c0.261,2.459,1.032,4.104,2.313,4.926c0.468,0.303,1.083,0.449,1.853,0.449
					c0.771,0,1.583-0.406,2.448-1.208C61.998,100.022,62.79,98.835,63.508,97.272z"/>
				<path fill-rule="evenodd" clip-rule="evenodd" fill="#333333" d="M68.674,103.5c0.583-1.957,0.864-5.936,0.864-11.902
					c0-1.053-0.01-1.729-0.031-2.042c-0.031-0.313-0.136-0.489-0.334-0.53c-0.801-0.178-1.29-0.646-1.447-1.387
					c-0.031-0.197-0.083-0.405-0.145-0.625h1.176c0.334,0,0.541-0.072,0.625-0.229c0.083-0.156,0.125-0.582,0.125-1.292
					c0-1.384-0.052-2.739-0.156-4.071c-0.104-1.333-0.053-2.333,0.156-3.02c0.209-0.688,0.531-1.271,0.969-1.762
					c0.927-1.029,2.238-1.541,3.938-1.541c0.635,0,1.219,0.063,1.738,0.188c0.531,0.125,1.031,0.178,1.521,0.178
					s0.917-0.063,1.292-0.197c0.364-0.137,0.687-0.438,0.968-0.896c0.157,0.177,0.303,0.51,0.438,0.979
					c0.136,0.469,0.198,0.979,0.198,1.542c0,0.552-0.031,1.135-0.114,1.76c-0.084,0.614-0.188,1.219-0.345,1.802
					c-0.301,1.219-0.729,2.197-1.279,2.916c-0.293-2.5-0.563-4.051-0.813-4.655c-0.251-0.614-0.531-1.03-0.824-1.26
					c-0.301-0.22-0.75-0.333-1.332-0.333c-0.584,0-1.104,0.301-1.563,0.926c-0.459,0.615-0.688,1.459-0.688,2.531v0.594
					c0,2.438,0.063,3.916,0.198,4.426c0.136,0.5,0.323,0.834,0.552,0.99c0.229,0.166,0.563,0.239,0.989,0.239h3.374
					c-0.313,1.104-0.688,1.812-1.135,2.124c-0.229,0.178-0.469,0.261-0.75,0.261c-0.271,0-0.49-0.021-0.646-0.052
					c-0.157-0.042-0.313-0.083-0.458-0.135c-0.365-0.115-0.698-0.178-1.001-0.178c-0.301,0-0.53,0.041-0.687,0.114
					c-0.156,0.083-0.291,0.198-0.385,0.344c-0.146,0.239-0.219,0.636-0.219,1.167v3.134c0,3.802,0.135,6.177,0.406,7.135
					c0.187,0.708,0.447,1.271,0.748,1.687l0.771,1.072H68.674z"/>
				<path fill-rule="evenodd" clip-rule="evenodd" fill="#333333" d="M87.453,88.107c-0.48,1.104-0.721,2.958-0.721,5.563
					c0,5.582,1.033,8.373,3.095,8.373c1.104,0,1.886-0.75,2.374-2.239c0.479-1.489,0.72-3.541,0.72-6.134
					c0-2.604-0.241-4.458-0.72-5.563c-0.488-1.094-1.271-1.645-2.374-1.645C88.722,86.463,87.931,87.014,87.453,88.107z
					 M89.827,84.629c5.145,0,7.718,2.781,7.718,8.343c0,3.374-0.709,6.04-2.136,8.009c-1.374,1.927-3.239,2.896-5.582,2.896
					s-4.208-0.969-5.593-2.896c-1.416-1.969-2.125-4.635-2.125-8.009C82.109,87.41,84.681,84.629,89.827,84.629z"/>
				<path fill-rule="evenodd" clip-rule="evenodd" fill="#333333" d="M107.032,95.117c0,3.957,0.239,6.748,0.718,8.383h-5.404
					c0.344-1.176,0.552-2.582,0.636-4.187c0.187-3.905,0.28-6.925,0.28-9.07c0-2.156-0.01-3.604-0.021-4.343l-0.041-2.219
					c-0.072-2.656-0.198-4.321-0.375-5.02c-0.177-0.688-0.344-1.188-0.489-1.5c-0.156-0.313-0.333-0.594-0.521-0.854l-0.604-0.844
					h6.686c-0.344,1.239-0.542,2.416-0.594,3.551c-0.063,1.125-0.104,2.125-0.135,3l-0.084,2.707
					c-0.021,1.563-0.031,3.427-0.031,5.594L107.032,95.117z"/>
				<path fill-rule="evenodd" clip-rule="evenodd" fill="#333333" d="M117.039,95.731c0,3.552,0.24,6.134,0.71,7.769h-5.406
					c0.345-1.176,0.563-2.582,0.646-4.187c0.178-3.905,0.271-6.925,0.271-9.07c0-2.156,0-3.604-0.01-4.343l-0.043-2.219
					c-0.072-2.635-0.197-4.301-0.374-5.02c-0.177-0.709-0.343-1.229-0.5-1.541c-0.239-0.511-0.615-1.063-1.125-1.656h6.696
					c-0.344,1.239-0.551,2.405-0.613,3.499l-0.125,2.666c-0.084,2.011-0.127,3.542-0.127,4.593c0,1.052,0.012,1.76,0.021,2.125
					c0.021,0.375,0.074,0.667,0.146,0.906c0.146,0.479,0.51,0.719,1.104,0.688c0.594-0.021,1.125-0.146,1.604-0.375
					c0.48-0.219,0.865-0.51,1.178-0.865c0.604-0.687,0.916-1.416,0.916-2.188c0-0.76-0.092-1.27-0.281-1.52h5.303
					c-0.147,0.291-0.281,0.594-0.397,0.896c-0.114,0.291-0.239,0.593-0.375,0.904c-0.864,1.928-2.239,3.324-4.103,4.198
					c0.114,2.53,0.947,5.062,2.488,7.603c1.459,2.354,3.052,3.988,4.802,4.904h-6.134c-1.229-0.582-2.219-2.551-2.979-5.895
					c-0.251-1.135-0.427-2.229-0.51-3.28s-0.219-1.739-0.407-2.062c-0.176-0.322-0.51-0.49-0.977-0.49
					c-0.938,0-1.398,0.875-1.398,2.604V95.731z"/>
			</g>
			<g>
				<polygon fill-rule="evenodd" clip-rule="evenodd" fill="#333333" points="3.895,112.426 5.562,112.426 7.644,118.686 
					9.738,112.426 11.405,112.426 12.904,121.394 11.258,121.394 10.29,115.728 8.384,121.394 6.884,121.394 4.999,115.728 
					4.01,121.394 2.343,121.394 				"/>
				<rect x="26.537" y="112.426" fill-rule="evenodd" clip-rule="evenodd" fill="#333333" width="1.698" height="8.968"/>
				<path fill-rule="evenodd" clip-rule="evenodd" fill="#333333" d="M47.241,113.645l-1.26,1.115
					c-0.448-0.615-0.896-0.928-1.354-0.928c-0.23,0-0.417,0.063-0.553,0.188c-0.146,0.115-0.219,0.25-0.219,0.406
					c0,0.146,0.052,0.291,0.156,0.428c0.136,0.177,0.552,0.562,1.25,1.145c0.656,0.553,1.052,0.896,1.188,1.031
					c0.343,0.354,0.593,0.688,0.739,1.01c0.135,0.313,0.208,0.667,0.208,1.041c0,0.74-0.25,1.345-0.76,1.823
					c-0.51,0.479-1.166,0.72-1.989,0.72c-0.636,0-1.198-0.156-1.667-0.469c-0.479-0.313-0.885-0.803-1.218-1.479l1.437-0.864
					c0.427,0.791,0.927,1.188,1.49,1.188c0.292,0,0.542-0.084,0.74-0.25c0.198-0.178,0.292-0.375,0.292-0.594
					c0-0.209-0.073-0.406-0.219-0.615c-0.156-0.197-0.49-0.51-1-0.926c-0.979-0.803-1.604-1.417-1.895-1.844
					c-0.282-0.438-0.427-0.865-0.427-1.302c0-0.615,0.239-1.157,0.718-1.594c0.469-0.448,1.053-0.666,1.75-0.666
					c0.447,0,0.875,0.093,1.281,0.313C46.335,112.718,46.772,113.104,47.241,113.645z"/>
				<polygon fill-rule="evenodd" clip-rule="evenodd" fill="#333333" points="60.488,112.426 65.445,112.426 65.445,114.113 
					63.811,114.113 63.811,121.394 62.082,121.394 62.082,114.113 60.488,114.113 				"/>
				<rect x="78.755" y="112.426" fill-rule="evenodd" clip-rule="evenodd" fill="#333333" width="1.698" height="8.968"/>
				<path fill-rule="evenodd" clip-rule="evenodd" fill="#333333" d="M102.97,114.01l-1.188,1.135
					c-0.813-0.864-1.729-1.292-2.75-1.292c-0.854,0-1.572,0.292-2.156,0.886c-0.592,0.584-0.885,1.302-0.885,2.166
					c0,0.594,0.126,1.125,0.387,1.594c0.26,0.459,0.633,0.822,1.103,1.083c0.479,0.271,1.011,0.406,1.583,0.406
					c0.501,0,0.947-0.094,1.365-0.281c0.406-0.188,0.854-0.521,1.354-1.01l1.156,1.208c-0.667,0.645-1.292,1.094-1.885,1.344
					c-0.584,0.25-1.261,0.375-2.011,0.375c-1.396,0-2.542-0.438-3.427-1.323s-1.333-2.021-1.333-3.405
					c0-0.886,0.208-1.688,0.604-2.375c0.406-0.697,0.99-1.26,1.739-1.677c0.761-0.427,1.562-0.635,2.437-0.635
					c0.74,0,1.447,0.155,2.136,0.468S102.48,113.426,102.97,114.01z"/>
				<path fill-rule="evenodd" clip-rule="evenodd" fill="#333333" d="M120.226,114.812l-1.197,3.071h2.395L120.226,114.812z
					 M119.351,112.426h1.73l3.445,8.968h-1.77l-0.707-1.844h-3.656l-0.729,1.844h-1.771L119.351,112.426z"/>
			</g>
		</g>
	</g>
</g>
</svg>
