<?xml version="1.0" encoding="utf-8"?>
<!-- Generator: Adobe Illustrator 16.0.0, SVG Export Plug-In . SVG Version: 6.00 Build 0)  -->
<!DOCTYPE svg PUBLIC "-//W3C//DTD SVG 1.1//EN" "http://www.w3.org/Graphics/SVG/1.1/DTD/svg11.dtd">
<svg version="1.1" id="Layer_1" xmlns="http://www.w3.org/2000/svg" xmlns:xlink="http://www.w3.org/1999/xlink" x="0px" y="0px"
	 width="211.861px" height="64.394px" viewBox="0 0 211.861 64.394" enable-background="new 0 0 211.861 64.394"
	 xml:space="preserve">
<g>
	<path fill="#FFFFFF" d="M57.027,34.08c-0.345-0.912-3.408-1.989-6.747-1.989c-0.458,0-0.922,0.021-1.385,0.064
		c-0.944-3.819-3.535-7.16-4.758-7.16c-1.137,0-3.793,3.375-4.756,7.203c-0.591-0.073-1.188-0.107-1.775-0.107
		c-3.338,0-6.4,1.077-6.747,1.989c-0.437,1.149,1.794,4.786,5.059,7.022c-1.769,3.564-1.919,7.924-1.041,8.662
		c0.224,0.189,0.631,0.282,1.163,0.282c1.886,0,5.353-1.159,7.884-3.326c2.532,2.167,5.999,3.326,7.885,3.326
		c0.534,0,0.94-0.093,1.163-0.282c0.877-0.736,0.729-5.08-1.03-8.642C55.22,38.888,57.466,35.234,57.027,34.08z M41.387,28.352
		c1.19-2.028,2.346-2.972,2.751-2.972c0.445,0,1.606,0.918,2.791,2.963c0.717,1.234,1.254,2.558,1.579,3.855
		c-0.88,0.109-1.749,0.306-2.563,0.615c-0.796,0.302-1.473,0.781-2.002,1.375c-0.528-0.594-1.206-1.073-2.001-1.375
		c-0.693-0.263-1.428-0.446-2.175-0.562C40.099,30.95,40.65,29.608,41.387,28.352z M48.867,34.909c0,0.855-0.232,1.69-0.665,2.417
		c-0.522-0.173-1.068-0.26-1.616-0.26c-0.456,0-0.912,0.063-1.355,0.185c-0.068-1.004-0.433-1.964-1.039-2.76
		c0.499-0.573,1.14-1.034,1.889-1.317c0.767-0.291,1.608-0.491,2.516-0.6C48.773,33.377,48.867,34.166,48.867,34.909z
		 M46.372,42.115c-0.013-0.816-0.217-1.626-0.608-2.357c1.065-0.357,1.973-1.056,2.596-1.964c0.708,0.285,1.345,0.741,1.848,1.341
		c0.452,0.537,0.864,1.165,1.229,1.857c-0.661,0.425-1.335,0.773-2.001,1.025c-0.541,0.205-1.104,0.309-1.676,0.309
		C47.281,42.326,46.816,42.252,46.372,42.115z M40.128,42.326c-0.573,0-1.137-0.104-1.677-0.309
		c-0.677-0.255-1.361-0.611-2.031-1.045c0.363-0.685,0.771-1.305,1.219-1.837c0.585-0.695,1.348-1.196,2.194-1.464
		c0.557,0.866,1.366,1.551,2.325,1.954c-0.443,0.769-0.674,1.633-0.686,2.502C41.043,42.256,40.59,42.326,40.128,42.326z
		 M39.677,32.627c0.762,0.116,1.473,0.297,2.128,0.546c0.75,0.283,1.39,0.744,1.889,1.317c-0.606,0.798-0.973,1.764-1.039,2.771
		c-0.457-0.13-0.926-0.196-1.395-0.196c-0.419,0-0.839,0.053-1.247,0.155c-0.386-0.688-0.604-1.478-0.604-2.311
		C39.408,34.186,39.502,33.415,39.677,32.627z M44.895,39.578c-0.063,0.011-0.125,0.039-0.178,0.081L44.4,39.8
		c-0.072,0.034-0.134,0.09-0.176,0.16c-0.059,0.104-0.124,0.204-0.189,0.302l-0.605-0.605c-0.054-0.054-0.123-0.09-0.198-0.105
		c-0.166-0.032-0.33-0.074-0.488-0.123c0.082-0.115,0.168-0.227,0.261-0.333c0.053-0.061,0.084-0.137,0.091-0.218l0.074-0.864
		l0.392,0.034c0.057,0.03,0.117,0.046,0.181,0.046c0.011,0,0.021,0,0.033-0.002l0.149-0.012l0.151,0.012
		c0.011,0.002,0.021,0.002,0.032,0.002c0.063,0,0.125-0.016,0.182-0.046l0.391-0.034l0.074,0.864
		c0.007,0.082,0.04,0.157,0.092,0.218c0.104,0.121,0.201,0.245,0.291,0.375L44.895,39.578L44.895,39.578z M44.18,37.67l-0.257,0.022
		l-0.255-0.022c-0.208-0.111-0.42-0.206-0.636-0.286c0.042-0.941,0.366-1.837,0.91-2.581c0.542,0.74,0.867,1.631,0.911,2.568
		C44.625,37.454,44.399,37.553,44.18,37.67z M41.261,37.45c0.471,0,0.938,0.073,1.384,0.209c0.004,0.264,0.026,0.532,0.073,0.799
		l-0.374,0.827c-0.87-0.357-1.603-0.962-2.119-1.721C40.563,37.489,40.909,37.45,41.261,37.45z M42.511,39.783l0.817,0.368
		c0.11,0.193,0.233,0.377,0.366,0.55c-0.5,0.573-1.129,1.014-1.831,1.291C41.895,41.21,42.118,40.45,42.511,39.783z M43.943,41.002
		c0.562,0.627,1.265,1.101,2.039,1.389c-0.046,1.036-0.433,2.035-1.104,2.834c-0.299,0.355-0.621,0.682-0.955,0.984
		c-0.333-0.303-0.654-0.629-0.953-0.984c-0.668-0.796-1.055-1.789-1.104-2.821C42.656,42.118,43.373,41.639,43.943,41.002z
		 M44.201,40.713l0.729-0.729l0.082-0.037c0.126-0.021,0.25-0.047,0.374-0.078c0.358,0.641,0.565,1.364,0.597,2.108
		C45.303,41.701,44.69,41.269,44.201,40.713z M47.726,37.99c-0.57,0.663-1.31,1.151-2.13,1.418l-0.427-0.949
		c0.047-0.271,0.071-0.542,0.073-0.811c0.434-0.129,0.888-0.197,1.344-0.197c0.479,0,0.95,0.074,1.396,0.211
		C47.903,37.775,47.817,37.885,47.726,37.99z M33,37.878c-1.492-1.833-1.939-3.245-1.782-3.662c0.099-0.261,0.77-0.718,2.007-1.105
		c1.312-0.409,2.867-0.635,4.382-0.635l0,0c0.584,0,1.146,0.033,1.687,0.098c-0.17,0.772-0.27,1.558-0.27,2.336
		c0,0.876,0.223,1.701,0.609,2.421c-0.862,0.288-1.659,0.81-2.287,1.557c-0.479,0.568-0.894,1.201-1.25,1.868
		C34.981,39.986,33.913,39.001,33,37.878z M40.343,48.522c-1.542,0.704-3.191,1.141-4.304,1.141c-0.622,0-0.85-0.135-0.916-0.19
		c-0.313-0.261-0.586-1.729-0.191-4.046c0.251-1.467,0.708-2.878,1.313-4.107c0.656,0.422,1.352,0.786,2.072,1.059
		c0.597,0.227,1.208,0.333,1.813,0.333c0.462,0,0.919-0.063,1.357-0.185c0.071,1.048,0.461,2.083,1.188,2.947
		c0.294,0.35,0.617,0.68,0.959,0.992C42.505,47.423,41.283,48.093,40.343,48.522z M52.915,45.425
		c0.396,2.317,0.121,3.784-0.19,4.046c-0.069,0.057-0.295,0.189-0.917,0.189c-1.113,0-2.763-0.436-4.303-1.14
		c-0.942-0.429-2.163-1.099-3.291-2.058c0.342-0.313,0.664-0.643,0.957-0.992c0.73-0.867,1.123-1.906,1.188-2.957
		c0.452,0.127,0.921,0.195,1.399,0.195c0.603,0,1.214-0.106,1.812-0.333c0.71-0.269,1.396-0.625,2.043-1.039
		C52.214,42.562,52.666,43.966,52.915,45.425z M51.761,40.775c-0.358-0.674-0.777-1.314-1.259-1.888
		c-0.542-0.644-1.209-1.119-1.936-1.423c0.435-0.752,0.685-1.625,0.685-2.555c0-0.792-0.099-1.592-0.27-2.375
		c0.421-0.039,0.854-0.058,1.298-0.058c1.516,0,3.07,0.226,4.383,0.635c1.236,0.387,1.906,0.844,2.006,1.105
		c0.158,0.417-0.29,1.828-1.78,3.662C53.966,39.012,52.887,40.003,51.761,40.775z"/>
	<path fill="#FFFFFF" d="M44.038,54.723c-8.943,0-16.217-7.273-16.217-16.216c0-8.942,7.273-16.216,16.217-16.216
		c8.941,0,16.217,7.274,16.217,16.216C60.255,47.45,52.979,54.723,44.038,54.723z M44.038,23.363
		c-8.353,0-15.146,6.794-15.146,15.145c0,8.352,6.794,15.146,15.146,15.146c8.351,0,15.145-6.795,15.145-15.146
		C59.182,30.157,52.388,23.363,44.038,23.363z"/>
	<circle fill="#FFFFFF" cx="44.037" cy="38.508" r="3.511"/>
</g>
<path fill="#FFFFFF" d="M88.075,18.828c0-0.937-0.032-1.87-0.092-2.796c-0.852-0.228-1.704-0.467-2.558-0.712
	c0.097,1.157,0.149,2.327,0.149,3.508c0,6.031-1.293,11.765-3.615,16.941c-1.865-3.141-4.134-6.071-6.784-8.721
	C66.858,18.73,55.8,14.15,44.038,14.15c-11.765,0-22.821,4.58-31.141,12.898c-2.65,2.65-4.919,5.58-6.784,8.721
	C3.792,30.593,2.5,24.859,2.5,18.828c0-0.595,0.016-1.185,0.041-1.774c-0.846,0.332-1.691,0.662-2.53,1.001
	C0.004,18.313,0,18.57,0,18.828c0,6.945,1.599,13.645,4.618,19.678C1.599,44.542,0,51.243,0,58.186c0,0.323,0.004,0.646,0.012,0.969
	c0.843,0.344,1.685,0.703,2.537,1.037C2.518,59.526,2.5,58.858,2.5,58.186c0-6.029,1.293-11.764,3.613-16.94
	c1.865,3.141,4.134,6.073,6.784,8.722c8.318,8.317,19.376,12.897,31.141,12.897c11.762,0,22.82-4.58,31.139-12.897
	c2.65-2.649,4.919-5.581,6.784-8.722c2.203,4.915,3.478,10.331,3.603,16.024c0.813-0.49,1.625-0.988,2.445-1.477
	c-0.325-6.09-1.881-11.948-4.552-17.287C86.477,32.472,88.075,25.774,88.075,18.828z M44.038,60.366
	c-15.789,0-29.546-8.854-36.572-21.858C14.492,25.504,28.25,16.65,44.038,16.65s29.546,8.854,36.57,21.857
	C73.584,51.511,59.826,60.366,44.038,60.366z"/>
<path fill="#FFFFFF" d="M45.037,11.115c-2.774,0-5.03-2.256-5.03-5.03c0-2.773,2.256-5.03,5.03-5.03c0.668,0,1.315,0.13,1.93,0.384
	l1.315,0.547l-1.315,0.547c-1.439,0.599-2.37,1.994-2.37,3.552c0,1.559,0.93,2.954,2.37,3.552l1.315,0.546l-1.315,0.547
	C46.354,10.986,45.706,11.115,45.037,11.115z M45.037,2.24c-2.12,0-3.847,1.725-3.847,3.845c0,2.121,1.727,3.846,3.847,3.846
	c0.052,0,0.104-0.001,0.155-0.003c-1.111-0.939-1.78-2.333-1.78-3.843c0-1.512,0.669-2.903,1.78-3.842
	C45.141,2.24,45.089,2.24,45.037,2.24z"/>
<g>
	<path fill="#FFFFFF" d="M117.589,42.113c0.133-0.642,0.199-1.153,0.199-1.535s-0.008-0.669-0.023-0.863
		c-0.016-0.193-0.036-0.4-0.062-0.619s-0.056-0.463-0.092-0.733c-0.035-0.27-0.067-0.583-0.099-0.94
		c-0.235-2.433-1.065-4.434-2.49-6.002c-0.631-0.691-1.313-1.219-2.047-1.581c-0.732-0.361-1.336-0.542-1.81-0.542
		s-0.838,0.03-1.092,0.092c-0.57,1.71-0.855,3.497-0.855,5.361c0,1.649,0.086,2.881,0.259,3.696
		c0.275,1.222,0.698,2.448,1.269,3.681h-4.567c0.245-0.611,0.367-1.896,0.367-3.857c0-1.96,0.146-3.792,0.442-5.499
		c0.296-1.705,0.681-3.225,1.153-4.559c0.475-1.334,1.002-2.502,1.589-3.505c0.585-1.003,1.17-1.878,1.755-2.626
		c0.586-0.749,1.14-1.39,1.658-1.925c0.521-0.534,0.952-1.005,1.298-1.413h4.813c-0.438,0.499-0.657,1.197-0.657,2.092
		c0,0.407,0.066,1.075,0.199,2.001l0.381,2.78c1.395,9.612,2.643,15.111,3.742,16.495L117.589,42.113L117.589,42.113z
		 M110.701,27.771c0.396-0.152,0.813-0.229,1.252-0.229c0.438,0,0.833,0.031,1.184,0.092c0.351,0.062,0.7,0.163,1.045,0.305
		c0.744,0.286,1.365,0.738,1.864,1.36c-0.499-2.617-0.804-4.215-0.916-4.796l-0.535-2.672l-0.871,1.039
		C112.503,24.334,111.496,25.969,110.701,27.771z"/>
	<path fill="#FFFFFF" d="M124.952,42.113c0.468-1.609,0.702-4.373,0.702-8.293c0-2.79-0.224-4.694-0.672-5.713
		c-0.184-0.417-0.509-0.891-0.978-1.42h5.423c-0.184,0.641-0.332,1.522-0.443,2.642c0.957-1.201,2.291-2.052,4.002-2.55
		c0.732-0.214,1.268-0.55,1.604-1.009c0.336,0.805,0.504,1.498,0.504,2.077c0,0.582-0.031,1.118-0.092,1.612
		c-0.063,0.494-0.153,0.976-0.275,1.443c-0.265,1.009-0.617,1.792-1.054,2.353c-0.377-1.986-0.962-3.147-1.757-3.483
		c-0.917-0.396-1.813,0.144-2.688,1.62c-0.184,0.305-0.336,0.631-0.458,0.977c-0.01,0.234-0.015,0.474-0.015,0.718
		c0,0.244,0,0.488,0,0.733c0,3.92,0.233,6.684,0.702,8.293H124.952z"/>
	<path fill="#FFFFFF" d="M141.63,20.577c-0.213,0.784-0.321,1.724-0.321,2.818c0,1.095,0.022,1.794,0.068,2.1
		c0.046,0.306,0.12,0.55,0.222,0.733c0.194,0.306,0.57,0.459,1.13,0.459h4.094c0,0.57-0.137,1.008-0.411,1.313
		c-0.5,0.549-1.11,0.825-1.833,0.825c-0.357,0-0.673-0.051-0.947-0.153c-0.5-0.203-0.886-0.305-1.161-0.305
		c-0.274,0-0.499,0.053-0.672,0.161c-0.174,0.106-0.312,0.262-0.412,0.466c-0.184,0.366-0.275,1.166-0.275,2.398
		c0,1.231,0.038,2.494,0.114,3.788c0.077,1.293,0.268,2.375,0.573,3.245c0.306,0.87,0.769,1.525,1.39,1.963s1.477,0.657,2.565,0.657
		c0,0.315-0.213,0.692-0.642,1.13c-0.111,0.122-0.209,0.204-0.291,0.244c-1.802,0-3.15-0.214-4.048-0.641
		c-1.027-0.509-1.761-1.416-2.198-2.719c-0.438-1.323-0.657-3.285-0.657-5.88c0-2.27-0.062-3.612-0.184-4.025
		c-0.122-0.412-0.233-0.684-0.337-0.817c-0.122-0.152-0.417-0.34-0.886-0.565c0.632-0.478,1.257-1.369,1.879-2.672l0.763-1.604
		c0.54-1.222,1-2.013,1.384-2.375C140.92,20.758,141.284,20.577,141.63,20.577z"/>
	<path fill="#FFFFFF" d="M159.119,36.92c0.366,0.244,0.549,0.669,0.549,1.275s-0.082,1.138-0.244,1.596
		c-0.163,0.458-0.448,0.886-0.855,1.283c-0.917,0.896-2.312,1.344-4.185,1.344c-2.18,0-3.839-0.804-4.979-2.413
		c-1.009-1.436-1.512-3.376-1.512-5.819c0-2.464,0.683-4.399,2.047-5.805c1.292-1.333,3.044-2.001,5.253-2.001
		c1.538,0,2.739,0.449,3.605,1.344c0.682,0.713,1.022,1.536,1.022,2.467c0,0.931-0.181,1.771-0.542,2.52
		c-0.36,0.748-0.894,1.393-1.596,1.932c-1.446,1.12-3.466,1.711-6.063,1.772c0.214,2.046,0.854,3.417,1.925,4.109
		c0.386,0.244,0.899,0.366,1.542,0.366c0.642,0,1.324-0.336,2.047-1.008C157.856,39.212,158.518,38.223,159.119,36.92z
		 M151.527,34.965c3.219-0.214,4.827-1.772,4.827-4.674c0-1.089-0.327-1.822-0.977-2.199c-0.226-0.123-0.521-0.183-0.888-0.183
		c-0.365,0-0.734,0.111-1.106,0.335c-0.372,0.225-0.695,0.591-0.97,1.1c-0.592,1.11-0.887,2.826-0.887,5.147V34.965z"/>
	<path fill="#FFFFFF" d="M163.426,42.113c0.479-1.639,0.718-4.949,0.718-9.928c0-0.876-0.01-1.443-0.031-1.703
		c-0.02-0.26-0.111-0.405-0.274-0.435c-0.671-0.153-1.074-0.54-1.207-1.161c-0.03-0.162-0.071-0.336-0.122-0.519h0.977
		c0.286,0,0.461-0.063,0.528-0.191c0.065-0.127,0.099-0.486,0.099-1.077c0-1.15-0.043-2.28-0.13-3.391
		c-0.086-1.109-0.043-1.95,0.13-2.52c0.174-0.57,0.443-1.059,0.811-1.467c0.773-0.854,1.869-1.282,3.284-1.282
		c0.528,0,1.013,0.051,1.451,0.152c0.438,0.103,0.86,0.153,1.268,0.153c0.408,0,0.764-0.056,1.069-0.168
		c0.305-0.112,0.574-0.361,0.81-0.749c0.132,0.153,0.254,0.426,0.367,0.817c0.112,0.392,0.167,0.82,0.167,1.283
		c0,0.464-0.033,0.952-0.099,1.466c-0.067,0.515-0.161,1.016-0.283,1.504c-0.255,1.019-0.611,1.829-1.069,2.429
		c-0.244-2.078-0.471-3.37-0.68-3.879c-0.208-0.51-0.438-0.858-0.688-1.046c-0.25-0.188-0.619-0.283-1.107-0.283
		s-0.924,0.258-1.306,0.772s-0.572,1.219-0.572,2.115v0.489c0,2.037,0.056,3.266,0.168,3.689c0.11,0.423,0.264,0.7,0.458,0.832
		c0.193,0.132,0.469,0.199,0.824,0.199h2.811c-0.254,0.917-0.57,1.507-0.946,1.771c-0.184,0.143-0.39,0.214-0.619,0.214
		c-0.229,0-0.41-0.015-0.542-0.046c-0.133-0.03-0.259-0.065-0.382-0.106c-0.306-0.102-0.583-0.153-0.833-0.153
		s-0.439,0.033-0.573,0.1c-0.132,0.065-0.238,0.16-0.319,0.282c-0.123,0.204-0.185,0.529-0.185,0.978v2.611
		c0,3.167,0.112,5.147,0.336,5.941c0.162,0.591,0.372,1.06,0.625,1.406L169,42.113H163.426z"/>
	<path fill="#FFFFFF" d="M181.051,26.381c4.287,0,6.43,2.317,6.43,6.95c0,2.811-0.591,5.036-1.771,6.675
		c-1.15,1.608-2.703,2.413-4.658,2.413c-1.956,0-3.508-0.804-4.658-2.413c-1.181-1.64-1.771-3.865-1.771-6.675
		C174.621,28.698,176.764,26.381,181.051,26.381z M179.073,29.283c-0.401,0.917-0.603,2.459-0.603,4.628
		c0,4.653,0.86,6.979,2.581,6.979c0.917,0,1.576-0.621,1.978-1.863c0.402-1.242,0.604-2.947,0.604-5.116s-0.201-3.712-0.604-4.628
		c-0.401-0.916-1.062-1.374-1.978-1.374S179.475,28.367,179.073,29.283z"/>
	<path fill="#FFFFFF" d="M195.393,35.117c0,3.299,0.199,5.631,0.596,6.996h-4.506c0.286-0.987,0.463-2.153,0.535-3.498
		c0.153-3.249,0.229-5.769,0.229-7.561s-0.005-2.996-0.016-3.612c-0.01-0.616-0.02-1.235-0.03-1.856
		c-0.062-2.209-0.166-3.602-0.313-4.177c-0.146-0.575-0.285-0.993-0.412-1.252c-0.127-0.26-0.271-0.496-0.436-0.71l-0.504-0.703
		h5.574c-0.284,1.029-0.45,2.014-0.496,2.956s-0.082,1.774-0.106,2.497c-0.025,0.724-0.049,1.477-0.069,2.261
		c-0.02,1.303-0.029,2.856-0.029,4.658L195.393,35.117z"/>
	<path fill="#FFFFFF" d="M203.733,35.637c0,2.953,0.198,5.112,0.596,6.476h-4.506c0.285-0.987,0.464-2.153,0.534-3.498
		c0.153-3.249,0.229-5.769,0.229-7.561s-0.005-2.996-0.016-3.612c-0.01-0.616-0.021-1.235-0.03-1.856
		c-0.062-2.188-0.166-3.581-0.313-4.177c-0.146-0.596-0.287-1.025-0.419-1.291c-0.194-0.427-0.504-0.885-0.932-1.374h5.575
		c-0.286,1.029-0.454,2.001-0.505,2.917l-0.106,2.215c-0.072,1.68-0.106,2.958-0.106,3.833s0.008,1.466,0.022,1.771
		c0.015,0.306,0.054,0.555,0.114,0.749c0.123,0.407,0.43,0.601,0.924,0.58c0.493-0.02,0.938-0.124,1.336-0.313
		c0.396-0.188,0.723-0.43,0.978-0.726c0.51-0.57,0.765-1.176,0.765-1.816c0-0.642-0.077-1.064-0.229-1.268h4.414
		c-0.122,0.244-0.23,0.491-0.328,0.741c-0.097,0.249-0.201,0.501-0.313,0.756c-0.725,1.608-1.863,2.774-3.421,3.497
		c0.102,2.108,0.794,4.221,2.076,6.339c1.213,1.965,2.546,3.33,4.001,4.093h-5.115c-1.02-0.489-1.844-2.128-2.476-4.918
		c-0.214-0.948-0.355-1.858-0.427-2.734c-0.071-0.875-0.184-1.448-0.336-1.718s-0.428-0.405-0.824-0.405
		c-0.773,0-1.161,0.723-1.161,2.168L203.733,35.637L203.733,35.637z"/>
</g>
<g>
	<path fill="#FFFFFF" d="M109.431,49.551h1.386l1.732,5.213l1.748-5.213h1.386l1.254,7.475h-1.376l-0.801-4.722l-1.588,4.722h-1.254
		l-1.573-4.722l-0.821,4.722h-1.387L109.431,49.551z"/>
	<path fill="#FFFFFF" d="M128.3,49.551h1.413v7.475H128.3V49.551z"/>
	<path fill="#FFFFFF" d="M145.558,50.567l-1.054,0.93c-0.37-0.514-0.747-0.772-1.13-0.772c-0.188,0-0.338,0.05-0.458,0.149
		c-0.119,0.102-0.179,0.213-0.179,0.338s0.042,0.244,0.128,0.357c0.114,0.147,0.463,0.467,1.043,0.959
		c0.543,0.455,0.872,0.74,0.987,0.857c0.289,0.292,0.493,0.57,0.613,0.837s0.181,0.556,0.181,0.871c0,0.612-0.212,1.12-0.636,1.521
		c-0.424,0.399-0.977,0.598-1.659,0.598c-0.532,0-0.996-0.129-1.391-0.391c-0.396-0.261-0.733-0.67-1.016-1.229l1.196-0.722
		c0.36,0.66,0.773,0.99,1.242,0.99c0.244,0,0.449-0.07,0.616-0.213c0.166-0.142,0.249-0.307,0.249-0.492
		c0-0.17-0.063-0.338-0.188-0.509c-0.125-0.169-0.401-0.429-0.83-0.778c-0.813-0.664-1.34-1.176-1.578-1.537
		c-0.237-0.36-0.355-0.719-0.355-1.08c0-0.518,0.198-0.963,0.593-1.332c0.396-0.371,0.882-0.557,1.462-0.557
		c0.373,0,0.729,0.086,1.066,0.26C144.799,49.793,145.164,50.11,145.558,50.567z"/>
	<path fill="#FFFFFF" d="M156.596,49.551h4.131v1.402h-1.362v6.07h-1.442v-6.07h-1.327L156.596,49.551L156.596,49.551z"/>
	<path fill="#FFFFFF" d="M171.828,49.551h1.412v7.475h-1.412V49.551z"/>
	<path fill="#FFFFFF" d="M192.008,50.864l-0.995,0.949c-0.677-0.715-1.438-1.072-2.284-1.072c-0.714,0-1.315,0.244-1.805,0.732
		c-0.49,0.488-0.734,1.089-0.734,1.805c0,0.5,0.108,0.941,0.325,1.33c0.216,0.385,0.523,0.688,0.919,0.909
		c0.396,0.22,0.836,0.33,1.32,0.33c0.413,0,0.791-0.078,1.132-0.231c0.342-0.153,0.718-0.436,1.127-0.842l0.964,1.006
		c-0.552,0.539-1.074,0.914-1.563,1.123c-0.492,0.207-1.053,0.312-1.683,0.312c-1.162,0-2.112-0.368-2.853-1.104
		c-0.741-0.736-1.11-1.682-1.11-2.834c0-0.744,0.168-1.406,0.505-1.986c0.337-0.578,0.82-1.045,1.448-1.396
		c0.629-0.352,1.305-0.527,2.03-0.527c0.617,0,1.21,0.129,1.781,0.39C191.103,50.013,191.595,50.384,192.008,50.864z"/>
	<path fill="#FFFFFF" d="M205.661,49.551h1.442l2.875,7.475H208.5l-0.584-1.541h-3.05l-0.608,1.541h-1.479L205.661,49.551z
		 M206.392,51.534l-1.003,2.564h1.999L206.392,51.534z"/>
</g>
</svg>
