<?xml version="1.0" encoding="utf-8"?>
<!-- Generator: Adobe Illustrator 16.0.0, SVG Export Plug-In . SVG Version: 6.00 Build 0)  -->
<!DOCTYPE svg PUBLIC "-//W3C//DTD SVG 1.1//EN" "http://www.w3.org/Graphics/SVG/1.1/DTD/svg11.dtd">
<svg version="1.1" id="Layer_1" xmlns="http://www.w3.org/2000/svg" xmlns:xlink="http://www.w3.org/1999/xlink" x="0px" y="0px"
	 width="175.985px" height="70.971px" viewBox="0 0 175.985 70.971" enable-background="new 0 0 175.985 70.971"
	 xml:space="preserve">
<g>
	<g>
		<g>
			<path fill="#FFFFFF" d="M20.164,41.662c0.211-1.021,0.316-1.836,0.316-2.443s-0.012-1.064-0.037-1.373
				c-0.024-0.309-0.057-0.637-0.098-0.986c-0.04-0.348-0.088-0.736-0.145-1.166c-0.058-0.43-0.109-0.928-0.158-1.496
				c-0.374-3.873-1.695-7.059-3.964-9.556c-1.005-1.101-2.091-1.941-3.259-2.516c-1.167-0.575-2.127-0.863-2.881-0.863
				S8.605,21.31,8.2,21.408c-0.907,2.723-1.361,5.567-1.361,8.534c0,2.626,0.138,4.587,0.413,5.885
				c0.438,1.944,1.111,3.897,2.019,5.86H2c0.39-0.973,0.584-3.02,0.584-6.141c0-3.12,0.234-6.038,0.705-8.754
				c0.47-2.715,1.082-5.135,1.836-7.257c0.754-2.124,1.596-3.984,2.529-5.581c0.932-1.597,1.863-2.99,2.795-4.182
				c0.933-1.192,1.813-2.213,2.639-3.065c0.827-0.851,1.516-1.601,2.066-2.249h7.66c-0.697,0.794-1.046,1.905-1.046,3.331
				c0,0.648,0.105,1.711,0.317,3.186l0.607,4.426c2.221,15.303,4.207,24.057,5.957,26.26H20.164z M9.197,18.829
				c0.633-0.243,1.297-0.364,1.994-0.364s1.325,0.049,1.885,0.146c0.559,0.098,1.114,0.26,1.665,0.486
				c1.184,0.455,2.173,1.175,2.967,2.165c-0.794-4.167-1.28-6.711-1.458-7.636l-0.852-4.254l-1.387,1.653
				C12.066,13.358,10.463,15.96,9.197,18.829z"/>
			<path fill="#FFFFFF" d="M31.885,41.662c0.745-2.561,1.118-6.961,1.118-13.202c0-4.441-0.356-7.473-1.069-9.095
				c-0.292-0.664-0.811-1.417-1.557-2.26h8.633c-0.292,1.02-0.527,2.423-0.705,4.206c1.523-1.912,3.646-3.266,6.371-4.06
				c1.166-0.34,2.018-0.876,2.553-1.606c0.535,1.281,0.803,2.384,0.803,3.307c0,0.925-0.049,1.78-0.146,2.565
				c-0.098,0.787-0.244,1.553-0.438,2.298c-0.422,1.606-0.981,2.854-1.678,3.746c-0.6-3.162-1.532-5.01-2.797-5.545
				c-1.459-0.632-2.885,0.228-4.279,2.579c-0.292,0.486-0.535,1.004-0.729,1.556c-0.017,0.374-0.024,0.754-0.024,1.144
				c0,0.388,0,0.778,0,1.167c0,6.241,0.373,10.642,1.118,13.202H31.885z"/>
			<path fill="#FFFFFF" d="M58.438,7.377c-0.34,1.248-0.511,2.744-0.511,4.486c0,1.743,0.036,2.857,0.109,3.343
				s0.19,0.875,0.353,1.167c0.309,0.486,0.908,0.73,1.799,0.73h6.518c0,0.907-0.219,1.604-0.656,2.091
				c-0.795,0.875-1.768,1.313-2.918,1.313c-0.568,0-1.07-0.081-1.508-0.244c-0.795-0.323-1.41-0.486-1.849-0.486
				c-0.437,0-0.794,0.084-1.069,0.256c-0.276,0.169-0.494,0.417-0.656,0.742c-0.292,0.583-0.438,1.856-0.438,3.817
				s0.061,3.971,0.182,6.03c0.122,2.059,0.426,3.78,0.912,5.167c0.486,1.386,1.224,2.429,2.213,3.126
				c0.988,0.697,2.35,1.045,4.084,1.045c0,0.502-0.34,1.102-1.021,1.799c-0.179,0.193-0.333,0.324-0.462,0.389
				c-2.869,0-5.018-0.34-6.444-1.02c-1.637-0.813-2.804-2.254-3.501-4.33c-0.697-2.106-1.045-5.228-1.045-9.361
				c0-3.614-0.098-5.75-0.292-6.408c-0.194-0.656-0.373-1.089-0.536-1.301c-0.193-0.242-0.664-0.542-1.41-0.899
				c1.006-0.761,2.002-2.18,2.992-4.255l1.215-2.553c0.859-1.945,1.593-3.205,2.201-3.782C57.307,7.665,57.887,7.377,58.438,7.377z"
				/>
			<path fill="#FFFFFF" d="M86.279,33.395c0.584,0.388,0.875,1.065,0.875,2.03c0,0.965-0.13,1.811-0.389,2.542
				c-0.26,0.729-0.714,1.41-1.361,2.041c-1.459,1.428-3.681,2.141-6.663,2.141c-3.47,0-6.112-1.279-7.927-3.842
				c-1.605-2.285-2.407-5.374-2.407-9.264c0-3.923,1.086-7.003,3.259-9.241c2.058-2.123,4.846-3.186,8.363-3.186
				c2.448,0,4.361,0.714,5.739,2.14c1.086,1.135,1.629,2.444,1.629,3.927c0,1.484-0.288,2.821-0.863,4.012
				c-0.575,1.191-1.423,2.217-2.541,3.075c-2.302,1.784-5.519,2.725-9.653,2.821c0.341,3.258,1.361,5.438,3.064,6.542
				c0.615,0.387,1.434,0.582,2.455,0.582s2.107-0.535,3.259-1.604C84.27,37.042,85.322,35.47,86.279,33.395z M74.194,30.283
				c5.122-0.341,7.684-2.821,7.684-7.441c0-1.734-0.52-2.9-1.556-3.501c-0.357-0.195-0.827-0.292-1.411-0.292
				c-0.583,0-1.171,0.178-1.763,0.534c-0.592,0.358-1.106,0.941-1.544,1.751c-0.94,1.767-1.41,4.499-1.41,8.194V30.283z"/>
			<path fill="#FFFFFF" d="M93.137,41.662c0.762-2.609,1.143-7.878,1.143-15.805c0-1.394-0.016-2.297-0.049-2.711
				c-0.032-0.414-0.178-0.646-0.438-0.693c-1.069-0.244-1.71-0.86-1.921-1.849c-0.048-0.258-0.113-0.535-0.194-0.827h1.556
				c0.454,0,0.733-0.101,0.84-0.304c0.104-0.203,0.157-0.773,0.157-1.714c0-1.831-0.068-3.631-0.207-5.398
				c-0.137-1.766-0.068-3.104,0.207-4.012c0.275-0.907,0.706-1.685,1.289-2.334c1.232-1.361,2.975-2.042,5.228-2.042
				c0.843,0,1.613,0.081,2.311,0.243c0.696,0.163,1.37,0.244,2.018,0.244c0.649,0,1.217-0.089,1.702-0.268
				c0.486-0.178,0.916-0.575,1.289-1.191c0.211,0.243,0.405,0.677,0.584,1.301c0.178,0.624,0.267,1.305,0.267,2.042
				c0,0.738-0.052,1.516-0.157,2.334c-0.106,0.819-0.256,1.617-0.45,2.395c-0.405,1.622-0.973,2.911-1.702,3.867
				c-0.389-3.308-0.75-5.365-1.082-6.176s-0.697-1.366-1.094-1.666c-0.397-0.299-0.985-0.451-1.764-0.451
				c-0.777,0-1.471,0.411-2.078,1.229c-0.608,0.819-0.912,1.941-0.912,3.368v0.778c0,3.242,0.089,5.199,0.268,5.873
				c0.178,0.673,0.421,1.114,0.729,1.325c0.309,0.21,0.746,0.316,1.313,0.316h4.474c-0.404,1.459-0.907,2.398-1.507,2.82
				c-0.292,0.228-0.62,0.34-0.985,0.34c-0.364,0-0.652-0.024-0.862-0.073c-0.212-0.048-0.413-0.104-0.608-0.169
				c-0.486-0.162-0.928-0.244-1.325-0.244s-0.701,0.053-0.912,0.159c-0.21,0.104-0.381,0.254-0.51,0.449
				c-0.195,0.325-0.292,0.843-0.292,1.557v4.158c0,5.042,0.178,8.194,0.535,9.458c0.259,0.941,0.592,1.688,0.996,2.238l1.021,1.434
				H93.137z"/>
			<path fill="#FFFFFF" d="M121.197,16.616c6.824,0,10.236,3.689,10.236,11.064c0,4.475-0.94,8.017-2.82,10.626
				c-1.832,2.563-4.304,3.842-7.416,3.842c-3.113,0-5.586-1.279-7.416-3.842c-1.881-2.609-2.821-6.151-2.821-10.626
				C110.96,20.305,114.371,16.616,121.197,16.616z M118.048,21.237c-0.641,1.458-0.96,3.915-0.96,7.368
				c0,7.408,1.369,11.111,4.109,11.111c1.459,0,2.508-0.988,3.148-2.967c0.641-1.977,0.96-4.691,0.96-8.145s-0.319-5.91-0.96-7.368
				c-0.641-1.459-1.689-2.188-3.148-2.188S118.688,19.778,118.048,21.237z"/>
			<path fill="#FFFFFF" d="M144.029,30.525c0,5.252,0.316,8.965,0.949,11.137h-7.174c0.454-1.572,0.737-3.428,0.852-5.568
				c0.243-5.171,0.364-9.183,0.364-12.036c0-2.853-0.008-4.77-0.024-5.75c-0.016-0.98-0.032-1.965-0.049-2.955
				c-0.097-3.517-0.264-5.735-0.498-6.65s-0.454-1.581-0.656-1.994c-0.203-0.413-0.434-0.79-0.693-1.13l-0.803-1.119h8.876
				c-0.454,1.638-0.718,3.206-0.79,4.705c-0.073,1.5-0.131,2.825-0.171,3.975c-0.04,1.152-0.077,2.351-0.109,3.599
				c-0.032,2.075-0.048,4.547-0.048,7.416L144.029,30.525z"/>
			<path fill="#FFFFFF" d="M157.307,31.352c0,4.7,0.315,8.138,0.947,10.31h-7.173c0.454-1.572,0.737-3.428,0.851-5.568
				c0.243-5.171,0.365-9.183,0.365-12.036c0-2.853-0.009-4.77-0.024-5.75c-0.017-0.98-0.032-1.965-0.049-2.955
				c-0.097-3.485-0.264-5.702-0.499-6.65c-0.234-0.949-0.457-1.632-0.668-2.055c-0.309-0.68-0.803-1.41-1.483-2.188h8.876
				c-0.455,1.638-0.722,3.186-0.803,4.645l-0.17,3.526c-0.114,2.675-0.17,4.709-0.17,6.103s0.012,2.334,0.036,2.821
				c0.023,0.486,0.085,0.884,0.182,1.191c0.195,0.648,0.685,0.957,1.472,0.923c0.785-0.032,1.495-0.197,2.127-0.498
				c0.633-0.299,1.151-0.685,1.557-1.156c0.811-0.907,1.216-1.872,1.216-2.892c0-1.022-0.122-1.695-0.365-2.018h7.027
				c-0.194,0.388-0.368,0.782-0.522,1.179c-0.154,0.396-0.32,0.797-0.498,1.203c-1.152,2.561-2.967,4.417-5.447,5.568
				c0.162,3.356,1.265,6.72,3.307,10.091c1.93,3.127,4.053,5.301,6.371,6.516h-8.146c-1.621-0.777-2.935-3.389-3.939-7.829
				c-0.341-1.508-0.567-2.958-0.681-4.353c-0.113-1.394-0.292-2.306-0.535-2.735s-0.681-0.645-1.313-0.645
				c-1.232,0-1.848,1.151-1.848,3.453V31.352z"/>
		</g>
	</g>
	<g>
		<g>
			<path fill="#FFFFFF" d="M7.176,53.503h2.207l2.758,8.299l2.783-8.299h2.206l1.996,11.898h-2.19l-1.275-7.516l-2.528,7.516h-1.997
				L8.63,57.886l-1.307,7.516H5.115L7.176,53.503z"/>
			<path fill="#FFFFFF" d="M37.216,53.503h2.249v11.898h-2.249V53.503z"/>
			<path fill="#FFFFFF" d="M64.69,55.121l-1.678,1.48c-0.589-0.82-1.188-1.23-1.8-1.23c-0.297,0-0.539,0.08-0.729,0.238
				c-0.189,0.16-0.283,0.34-0.283,0.539s0.066,0.387,0.202,0.566c0.184,0.236,0.737,0.746,1.661,1.529
				c0.864,0.723,1.389,1.178,1.572,1.365c0.459,0.465,0.784,0.908,0.977,1.332c0.191,0.424,0.287,0.885,0.287,1.387
				c0,0.977-0.337,1.783-1.012,2.42s-1.556,0.953-2.641,0.953c-0.848,0-1.586-0.207-2.215-0.623
				c-0.629-0.414-1.168-1.066-1.615-1.957l1.903-1.148c0.573,1.051,1.231,1.578,1.978,1.578c0.389,0,0.716-0.113,0.98-0.34
				s0.396-0.488,0.396-0.785c0-0.27-0.1-0.539-0.3-0.809s-0.641-0.684-1.321-1.238c-1.296-1.057-2.133-1.873-2.512-2.447
				s-0.567-1.146-0.567-1.719c0-0.824,0.315-1.533,0.944-2.123s1.404-0.885,2.328-0.885c0.594,0,1.159,0.137,1.697,0.412
				C63.482,53.89,64.063,54.392,64.69,55.121z"/>
			<path fill="#FFFFFF" d="M82.263,53.503h6.577v2.232h-2.168v9.666h-2.297v-9.666h-2.112V53.503z"/>
			<path fill="#FFFFFF" d="M106.514,53.503h2.248v11.898h-2.248V53.503z"/>
			<path fill="#FFFFFF" d="M138.641,55.593l-1.584,1.51c-1.078-1.139-2.29-1.707-3.637-1.707c-1.137,0-2.096,0.387-2.873,1.166
				c-0.779,0.777-1.168,1.734-1.168,2.873c0,0.795,0.172,1.498,0.517,2.115c0.345,0.615,0.833,1.098,1.463,1.449
				c0.63,0.35,1.331,0.525,2.102,0.525c0.657,0,1.259-0.123,1.802-0.369c0.545-0.244,1.143-0.691,1.795-1.34l1.535,1.604
				c-0.879,0.857-1.709,1.453-2.49,1.785c-0.783,0.33-1.676,0.496-2.679,0.496c-1.85,0-3.364-0.586-4.542-1.76
				c-1.179-1.172-1.768-2.676-1.768-4.51c0-1.186,0.269-2.24,0.805-3.162c0.537-0.922,1.306-1.664,2.306-2.225
				c1.001-0.561,2.077-0.84,3.231-0.84c0.981,0,1.927,0.207,2.836,0.619C137.199,54.24,137.983,54.83,138.641,55.593z"/>
			<path fill="#FFFFFF" d="M160.376,53.503h2.297l4.577,11.898h-2.354l-0.931-2.451h-4.855l-0.968,2.451h-2.354L160.376,53.503z
				 M161.539,56.658l-1.597,4.084h3.183L161.539,56.658z"/>
		</g>
	</g>
</g>
</svg>
