<svg width="115" height="16" viewBox="0 0 115 16" fill="none" xmlns="http://www.w3.org/2000/svg">
<path d="M7.87505 0C3.5258 0 0 3.52568 0 7.87493C0 12.2244 3.5258 15.7501 7.87505 15.7501C12.2244 15.7501 15.7501 12.2244 15.7501 7.87493C15.7501 3.52568 12.2244 0 7.87505 0ZM11.4866 11.3585C11.3451 11.5905 11.0429 11.6632 10.8117 11.5218C8.96239 10.3916 6.63476 10.1363 3.89354 10.7624C3.62941 10.823 3.36609 10.6574 3.30589 10.3933C3.24534 10.1292 3.4103 9.86586 3.67502 9.80566C6.67477 9.11988 9.24799 9.41494 11.3237 10.6833C11.5552 10.8249 11.628 11.1271 11.4866 11.3585ZM12.4503 9.21415C12.2722 9.50314 11.8944 9.59367 11.6057 9.41622C9.48949 8.11538 6.26235 7.73855 3.75856 8.49852C3.43387 8.59675 3.09087 8.41358 2.99228 8.08948C2.8944 7.76491 3.07757 7.42249 3.40167 7.32379C6.26189 6.45602 9.81744 6.87626 12.2482 8.37006C12.5368 8.54775 12.6276 8.92587 12.4503 9.21415ZM12.5333 6.98137C9.99489 5.4738 5.8077 5.33531 3.3844 6.07067C2.99532 6.18874 2.58372 5.96905 2.46588 5.57997C2.34793 5.19053 2.56738 4.77939 2.95682 4.66109C5.73852 3.81665 10.3629 3.97975 13.2851 5.71448C13.6351 5.92215 13.7499 6.37424 13.5425 6.72365C13.3348 7.07377 12.8825 7.18916 12.5333 6.98137Z" fill="#007591"/>
<g clip-path="url(#clip0_3482_62019)">
<path d="M27.6255 5.71643C26.174 5.71643 24.9895 6.84714 24.9895 8.23268C24.9895 9.61823 26.174 10.7489 27.6255 10.7489C29.0771 10.7489 30.2616 9.61823 30.2616 8.23268C30.2616 6.84714 29.0771 5.71643 27.6255 5.71643ZM35.5318 8.23268C35.5318 7.19069 35.5417 6.15814 35.4804 5.11804C35.4191 3.90993 35.1303 2.83774 34.2049 1.95432C33.2774 1.069 32.1561 0.795292 30.8905 0.736774C29.7989 0.678257 28.7171 0.687695 27.6275 0.687695C26.5359 0.687695 25.4542 0.678257 24.3646 0.736774C23.0989 0.795292 21.9757 1.07089 21.0502 1.95432C20.1227 2.83963 19.836 3.90993 19.7747 5.11804C19.7134 6.16003 19.7232 7.19258 19.7232 8.23268C19.7232 9.27278 19.7134 10.3072 19.7747 11.3473C19.836 12.5554 20.1247 13.6276 21.0502 14.511C21.9777 15.3964 23.0989 15.6701 24.3646 15.7286C25.4562 15.7871 26.5379 15.7777 27.6275 15.7777C28.7191 15.7777 29.8008 15.7871 30.8905 15.7286C32.1561 15.6701 33.2794 15.3945 34.2049 14.511C35.1323 13.6257 35.4191 12.5554 35.4804 11.3473C35.5437 10.3072 35.5318 9.27467 35.5318 8.23268ZM27.6255 12.1043C25.381 12.1043 23.5696 10.3752 23.5696 8.23268C23.5696 6.09018 25.381 4.36109 27.6255 4.36109C29.8701 4.36109 31.6815 6.09018 31.6815 8.23268C31.6815 10.3752 29.8701 12.1043 27.6255 12.1043ZM31.8476 5.10671C31.3236 5.10671 30.9004 4.70275 30.9004 4.20252C30.9004 3.70229 31.3236 3.29833 31.8476 3.29833C32.3717 3.29833 32.7949 3.70229 32.7949 4.20252C32.795 4.3213 32.7706 4.43895 32.7231 4.54872C32.6755 4.65849 32.6058 4.75822 32.5178 4.84221C32.4298 4.92621 32.3253 4.9928 32.2103 5.03819C32.0953 5.08358 31.9721 5.10686 31.8476 5.10671Z" fill="#007591"/>
</g>
<path d="M47.375 15.7501C51.7243 15.7501 55.2501 12.2243 55.2501 7.87505C55.2501 3.52578 51.7243 0 47.375 0C43.0258 0 39.5 3.52578 39.5 7.87505C39.5 12.2243 43.0258 15.7501 47.375 15.7501Z" fill="#007591"/>
<path fill-rule="evenodd" clip-rule="evenodd" d="M51.1632 4.18535C50.2201 3.24139 48.9657 2.72129 47.6294 2.7207C44.8757 2.7207 42.6346 4.96095 42.6337 7.71453C42.6332 8.59467 42.8633 9.45393 43.3006 10.2112L42.5918 12.7991L45.24 12.1046C45.9698 12.5024 46.7914 12.7122 47.6274 12.7124H47.6295C47.6297 12.7124 47.6294 12.7124 47.6295 12.7124C50.3828 12.7124 52.6241 10.472 52.6252 7.71838C52.6255 6.38406 52.1065 5.12918 51.1632 4.18535ZM47.6294 11.8691H47.6276C46.8826 11.8688 46.1519 11.6687 45.5143 11.2905L45.3626 11.2006L43.7911 11.6127L44.2107 10.081L44.1119 9.92398C43.6962 9.26306 43.4767 8.49924 43.4771 7.71488C43.478 5.42622 45.3407 3.56421 47.631 3.56421C48.74 3.56456 49.7825 3.99693 50.5665 4.78152C51.3505 5.5661 51.7819 6.60911 51.7816 7.71815C51.7806 10.007 49.9179 11.8691 47.6294 11.8691ZM49.907 8.76034C49.7821 8.6978 49.1684 8.39598 49.0539 8.35433C48.9395 8.31268 48.8564 8.2918 48.7731 8.41675C48.6899 8.5417 48.4506 8.82275 48.3778 8.90605C48.305 8.98935 48.2322 8.99974 48.1075 8.93732C47.9826 8.8749 47.5804 8.74307 47.1037 8.31794C46.7326 7.98707 46.4821 7.57838 46.4093 7.45343C46.3365 7.32848 46.4016 7.26093 46.4641 7.19874C46.5201 7.14286 46.5888 7.05291 46.6512 6.98011C46.7137 6.90731 46.7344 6.85516 46.776 6.77186C46.8176 6.68856 46.7968 6.61576 46.7656 6.55322C46.7343 6.49069 46.4848 5.87656 46.3807 5.62665C46.2794 5.3834 46.1765 5.4163 46.0999 5.41245C46.0272 5.40883 45.9439 5.40802 45.8606 5.40802C45.7774 5.40802 45.6422 5.43929 45.5277 5.56412C45.4133 5.68907 45.0908 5.99089 45.0908 6.60514C45.0908 7.2194 45.5381 7.81277 45.6005 7.89595C45.6629 7.97913 46.4807 9.23972 47.7329 9.78013C48.0307 9.90869 48.2632 9.98546 48.4445 10.043C48.7435 10.1379 49.0157 10.1245 49.2307 10.0924C49.4705 10.0566 49.9693 9.79051 50.0733 9.49908C50.1774 9.20764 50.1774 8.95774 50.1461 8.90571C50.1149 8.85367 50.0318 8.82275 49.907 8.76034Z" fill="white"/>
<g clip-path="url(#clip1_3482_62019)">
<path d="M74.7661 3.67042C74.2182 3.9111 73.6295 4.07371 73.0107 4.14722C73.6492 3.76851 74.1269 3.17247 74.3547 2.47031C73.7547 2.82351 73.0982 3.07212 72.4135 3.20534C71.953 2.71805 71.3432 2.39507 70.6785 2.28654C70.0139 2.17801 69.3318 2.29 68.7379 2.60512C68.1441 2.92025 67.6719 3.42088 67.3945 4.02929C67.1172 4.6377 67.0503 5.31984 67.2041 5.96982C65.9885 5.90933 64.7994 5.59616 63.7138 5.05065C62.6282 4.50514 61.6705 3.73948 60.9028 2.80335C60.6403 3.25217 60.4893 3.77255 60.4893 4.32674C60.489 4.82565 60.613 5.31691 60.8502 5.75695C61.0874 6.19698 61.4305 6.57218 61.8491 6.84925C61.3636 6.83394 60.8889 6.70393 60.4644 6.47003V6.50906C60.4643 7.20879 60.7085 7.88699 61.1555 8.42858C61.6026 8.97017 62.2248 9.34179 62.9168 9.48039C62.4665 9.60119 61.9943 9.61898 61.5361 9.53243C61.7313 10.1345 62.1116 10.661 62.6237 11.0382C63.1358 11.4154 63.7541 11.6244 64.3921 11.636C63.3091 12.4787 61.9717 12.9357 60.595 12.9337C60.3511 12.9338 60.1074 12.9197 59.8652 12.8914C61.2627 13.782 62.8895 14.2547 64.5509 14.2529C70.175 14.2529 73.2495 9.63585 73.2495 5.63158C73.2495 5.50149 73.2463 5.37009 73.2403 5.24C73.8384 4.81133 74.3546 4.28049 74.7648 3.67238L74.7661 3.67042Z" fill="#007591"/>
</g>
<path fill-rule="evenodd" clip-rule="evenodd" d="M86.899 1.04956C83.0379 1.04956 80.0449 3.87789 80.0449 7.69805C80.0449 9.69622 80.8639 11.4229 82.1975 12.6155C82.3095 12.7158 82.3771 12.8561 82.3816 13.0064L82.419 14.2256C82.431 14.6145 82.8327 14.8676 83.1885 14.7105L84.549 14.1099C84.6643 14.0591 84.7936 14.0495 84.9151 14.083C85.5402 14.2549 86.2057 14.3464 86.8992 14.3464C90.7603 14.3464 93.7533 11.5181 93.7533 7.69792C93.7533 3.87776 90.7602 1.04956 86.899 1.04956Z" fill="#007591"/>
<path fill-rule="evenodd" clip-rule="evenodd" d="M82.7814 9.6421L84.7947 6.44782C85.115 5.93967 85.8008 5.81308 86.2814 6.17352L87.8829 7.3746C88.0297 7.4848 88.232 7.48413 88.3782 7.37312L90.5409 5.73176C90.8296 5.5127 91.2064 5.8581 91.0132 6.16478L88.9998 9.35907C88.6795 9.86722 87.9937 9.99381 87.5131 9.63337L85.9117 8.43229C85.7648 8.32208 85.5625 8.32275 85.4163 8.43376L83.2536 10.0751C82.9651 10.2941 82.5883 9.94866 82.7814 9.6421Z" fill="white"/>
<g clip-path="url(#clip2_3482_62019)">
<path fill-rule="evenodd" clip-rule="evenodd" d="M98.75 7.91902C98.75 11.8342 101.594 15.0899 105.313 15.7501V10.0623H103.344V7.87505H105.313V6.12482C105.313 4.15606 106.581 3.06274 108.375 3.06274C108.944 3.06274 109.557 3.15002 110.125 3.2373V5.25003H109.119C108.156 5.25003 107.938 5.73106 107.938 6.34401V7.87505H110.038L109.688 10.0623H107.938V15.7501C111.657 15.0899 114.5 11.8349 114.5 7.91902C114.5 3.56346 110.956 0 106.625 0C102.294 0 98.75 3.56346 98.75 7.91902Z" fill="#007591"/>
</g>
<defs>
<clipPath id="clip0_3482_62019">
<rect width="15.7501" height="15.7501" fill="white" transform="translate(19.75)"/>
</clipPath>
<clipPath id="clip1_3482_62019">
<rect width="15.7501" height="14.0501" fill="white" transform="translate(59.25 0.849976)"/>
</clipPath>
<clipPath id="clip2_3482_62019">
<rect width="15.7501" height="15.7501" fill="white" transform="translate(98.75)"/>
</clipPath>
</defs>
</svg>
